<svg xmlns="http://www.w3.org/2000/svg" viewBox="0 0 133.85 120.99"><defs><style>.cls-1{font-size:18px;}.cls-1,.cls-4,.cls-8{fill:#b8daff;}.cls-1,.cls-4{font-family:TwCenMT-Condensed, Tw Cen MT Condensed;}.cls-2{letter-spacing:-0.03em;}.cls-3{letter-spacing:-0.02em;}.cls-4{font-size:12px;}.cls-5{letter-spacing:-0.04em;}.cls-6{letter-spacing:-0.03em;}.cls-7{letter-spacing:-0.09em;}</style></defs><title>bottom_info</title><g id="Layer_2" data-name="Layer 2"><g id="footer"><g id="footer-group"><text class="cls-1" transform="translate(0 14.6)">Flight Cont<tspan class="cls-2" x="56.98" y="0">r</tspan><tspan x="61.39" y="0">ol </tspan><tspan class="cls-3" x="74.63" y="0">A</tspan><tspan x="81.83" y="0">pplication</tspan></text><text class="cls-4" transform="translate(43.23 29.1)"><tspan class="cls-5">A</tspan><tspan x="4.5" y="0">Wielgus</tspan><tspan class="cls-3" x="32.57" y="0">z</tspan><tspan class="cls-6" x="36.25" y="0">e</tspan><tspan x="40.22" y="0">wski</tspan></text><text class="cls-4" transform="translate(50.83 118.1)"><tspan class="cls-7">v</tspan><tspan x="3.28" y="0" xml:space="preserve">.  1.0.0</tspan></text><g id="github-logo"><path class="cls-8" d="M30.94,25.45c0-.18,0-.35.07-.53a4.62,4.62,0,0,1,.77-1.9,4.81,4.81,0,0,1,4.48-2.08,4.68,4.68,0,0,1,2.4.93,4.85,4.85,0,0,1,0,7.8,4.5,4.5,0,0,1-1.29.67.24.24,0,0,1-.36-.25c0-.42,0-.84,0-1.26a1.41,1.41,0,0,0-.1-.61,3.7,3.7,0,0,0-.19-.32c.18,0,.37-.06.55-.11A2,2,0,0,0,38.47,27,2.28,2.28,0,0,0,38.84,26a2.78,2.78,0,0,0,0-.86,1.75,1.75,0,0,0-.41-.84.12.12,0,0,1,0-.13A1.65,1.65,0,0,0,38.33,23a.11.11,0,0,0-.08,0,.84.84,0,0,0-.47.09l-.72.37a.24.24,0,0,1-.15,0,4.58,4.58,0,0,0-2.26,0,.21.21,0,0,1-.15,0,3.48,3.48,0,0,0-1-.44h0c-.23,0-.27,0-.33.2a1.64,1.64,0,0,0,0,1,.12.12,0,0,1,0,.1,2,2,0,0,0-.44,1.6,2.76,2.76,0,0,0,.27,1,1.72,1.72,0,0,0,1,.86,7.68,7.68,0,0,0,.82.19h0l-.21.38a.36.36,0,0,0,0,.14.17.17,0,0,1-.15.17,1.09,1.09,0,0,1-.9,0,1.06,1.06,0,0,1-.36-.38,1,1,0,0,0-.6-.49.94.94,0,0,0-.31,0c-.06,0-.08.06,0,.11a.58.58,0,0,0,.14.15,1.31,1.31,0,0,1,.52.65,1.14,1.14,0,0,0,.26.41,1.09,1.09,0,0,0,.71.26h.7c0,.14,0,.3,0,.46s0,.25,0,.37a.25.25,0,0,1-.36.26,4.68,4.68,0,0,1-1.87-1.17,4.89,4.89,0,0,1-1.14-1.82A4.81,4.81,0,0,1,31,26.12s0-.07,0-.11Z"/></g><g id="prz-logo"><path class="cls-8" d="M83.49,35.53v73.12H45.74v-73C47.36,35.28,79.14,35.14,83.49,35.53ZM74.85,41.4C72.76,48.24,70.7,55,68.6,61.8S64.32,75.4,62.11,82.4C76.93,76.63,84.2,56.18,74.85,41.4ZM51.72,74.27c-1.25,2.94-1.86,6-2.93,9a7.63,7.63,0,0,0-.44,2.7c0,6.08,0,12.17,0,18.25,0,.58-.22,1.23.28,1.79H51.9c1.42-4.54,2.83-9,4.24-13.53Q60,80.09,63.82,67.76a2.55,2.55,0,0,0,0-2.12C60.5,69.61,56.9,72.9,51.72,74.27Zm29,17.8V65.5A33.65,33.65,0,0,1,62.91,85.55l6.37,6.52Zm-32.2-17.4c1.07-3,10.93-34.63,11-35.44a3,3,0,0,0-.11-.73H48.48Zm4.66-3.93c10.24-3.83,16.23-18.09,8.7-29.56-3,9.69-5.93,19.2-8.86,28.72A.73.73,0,0,0,53.14,70.74Zm13.67,35.19V94.64L60.4,88.07l-5.59,17.85Zm13.81-7.78c-1.61.08-2.86,1.08-4.38,1.4-.07-1.71,1.3-2.86,1.25-4.62-1.56.11-3.06-.19-4.55.17-.09,1.65,1.5,2.75,1.26,4.48-1.57-.38-2.8-1.44-4.42-1.35v4.53c1.63,0,2.8-1.32,4.38-1.21.14,1.59-1.3,2.73-1.19,4.41a17.61,17.61,0,0,0,4.59-.15c-.12-1.62-1.24-2.84-1.31-4.56l4.38,1.64A18.35,18.35,0,0,0,80.62,98.14ZM63.41,38.55a23.1,23.1,0,0,1,4.57,15c2-4.88,3.26-9.94,4.93-15ZM80.62,47a66.11,66.11,0,0,0,0-8.88,20.69,20.69,0,0,0-4.15.11C78,41.28,79.65,44,80.62,47Z"/></g></g></g></g></svg>