<svg xmlns="http://www.w3.org/2000/svg" viewBox="0 0 90.8 90.52"><defs><style>.cls-1{fill:#fff;}</style></defs><title>pencil_logo</title><g id="Layer_2" data-name="Layer 2"><g id="Layer_1-2" data-name="Layer 1"><path class="cls-1" d="M83.85,4.76C78.78,0,74-1.33,67.47,1.37,61.71,3.75,57.21,9,52.67,13.1c-6.83,6.23-13.42,12.74-19.9,19.34Q23.4,42,14.36,51.91c-2.68,2.94-5.71,5.86-8,9.13a1.56,1.56,0,0,0-.24.34,1.51,1.51,0,0,0-.2.41C4.29,65,3.63,68.94,2.84,72.37A122.47,122.47,0,0,0,0,89c-.1,1.07,1,1.58,1.9,1.45,8.77-1.37,17.43-3.31,26.17-4.85,3.56-.63,5.11-3.08,7.6-5.66q6.26-6.47,12.48-13c7.72-8.06,15.44-16.11,23.29-24C77.9,36.42,87,29.32,90.13,20.32,92.41,13.68,88.5,9.1,83.85,4.76ZM74.57,35.87C71,32.9,68.25,29.44,65,26c-3.39-3.6-7-7-10.68-10.29l2-1.85q10.15,10,20,20.23Zm-8,7.8C60.17,36.5,52.76,30.34,45.56,24l1.79-1.72C55,27.93,61.48,35.33,68.15,42l-.76.76ZM27.79,72.42h0c-2.85.17-5.71.17-8.57.26-.1-2.18-.08-5.65-.88-7.67,5.15-5,9.59-10.56,14.5-15.82C38.37,43.26,44.24,37.61,50,31.86c3,2.6,5.92,5.25,8.75,8C48.68,51,38.47,61.93,27.79,72.42Zm24.9-55.16,1.59,1.46a43.55,43.55,0,0,1-3.38,3.49c-.63-.5-1.28-1-1.92-1.46Q50.82,19,52.69,17.27ZM60,30.52a35,35,0,0,0,3.31-3l.11.11c.63.67,1.23,1.33,1.83,2a26.4,26.4,0,0,1-3.1,3.07Q61.1,31.59,60,30.52Zm-1.61-1.58c-.62-.6-1.24-1.21-1.86-1.8q1.55-1.67,3.17-3.28,1,1,2,2A35,35,0,0,1,58.42,28.94Zm-3.53-3.31q-1.11-1-2.25-2a43.55,43.55,0,0,0,3.29-3.41l2.18,2Q56.46,23.93,54.89,25.63Zm8.85,8.66a26.39,26.39,0,0,0,3-3c.66.74,1.33,1.47,2,2.19q-1.5,1.47-2.87,3.06Zm-37.3,9q8.32-8.77,17-17.21l4.88,4.25c-5.69,5.72-11.53,11.32-17,17.22-4.91,5.26-9.35,10.77-14.5,15.82a23.12,23.12,0,0,0-2.62-.4c-1.65-.3-3.31-.55-5-.77C14,55.43,20.72,49.36,26.44,43.34ZM15,85.33a65.15,65.15,0,0,0-9.8-9.77c.17-.8.34-1.59.53-2.39A59.76,59.76,0,0,1,8,64.33c2.39.21,6.13.26,8.23,1.33-.81-.27,0,1.5.13,2.65.23,1.84.45,3.68.66,5.51A1.15,1.15,0,0,0,18.16,75c2.12-.08,4.3.05,6.41-.14,2.3-.21,2.22-.67,2.47,1.59.23,2.06.39,4.13.54,6.19-.26.09-.52.17-.79.24C22.92,83.81,19,84.61,15,85.33ZM47.31,63.54Q42,69.12,36.61,74.7c-2.17,2.25-4.24,5.06-6.85,6.79-.17-2.38-.37-4.77-.73-7.12,10.81-10.6,21.13-21.68,31.29-32.92q2.12,2.13,4.11,4.38Q55.82,54.64,47.31,63.54ZM69.75,40.46l-2.27-2.3q1.38-1.59,2.88-3.07c.81.8,1.67,1.58,2.58,2.34C71.86,38.45,70.79,39.46,69.75,40.46Zm16.69-19.1a44.78,44.78,0,0,1-8,10.63Q68.65,21.79,58.55,11.86l.44-.41c4.53-4.09,10.2-10.21,17-8.32,3.16.87,5.75,3.63,7.88,6C87.38,12.95,89,16.21,86.45,21.35Z"/><path class="cls-1" d="M68,9.1c-.27-1.42-2.43-.82-2.17.6a45.23,45.23,0,0,0,1.56,6c.46,1.37,2.63.78,2.17-.6A45.24,45.24,0,0,1,68,9.1Z"/><path class="cls-1" d="M71.79,8.33c-.46-1.37-2.63-.78-2.17.6L71.32,14c.46,1.37,2.63.78,2.17-.6Z"/></g></g></svg>