<svg xmlns="http://www.w3.org/2000/svg" viewBox="0 0 1159.31 717.68"><defs><style>.cls-1{fill:gray;}.cls-2,.cls-3,.cls-4{fill:none;}.cls-2,.cls-3,.cls-4,.cls-6{stroke:#fff;stroke-miterlimit:10;}.cls-3{stroke-dasharray:39.63 34.68;}.cls-4{stroke-width:2px;}.cls-5{fill:#fff;}.cls-6,.cls-7{fill:#f2f2f2;}.cls-7{font-size:72px;font-family:Prisma, Prisma;}</style></defs><title>start_screen</title><g id="Layer_2" data-name="Layer 2"><g id="mapy"><g id="map-cut"><path class="cls-1" d="M853.2,266.79h0Z"/><path class="cls-1" d="M925.38,296.54c-.35,1.18-.64,2.38-1,3.53-1.15,3.28,3.15,10.3-5.56,8.44-5.77-1.23-11.48-3-10.51,6.55,0,.38-1.53,1.13-2.44,1.38-3.23.87-8.23-.14-9.17,3.36-1.75,6.51-6,12.4-6.32,19.3a11.19,11.19,0,0,1,.27,3.72l0,0,.6,3.94c.46-1.45.59-3.14,1.44-4.29,2.87-3.87-5.61-13.92,6.82-12.53,5.06.57,2.48,4.78,1.93,6-2.09,4.57,3.92,13-6.58,13.72-6.66.45-6.15-2.53-4.21-6.84v-.06a16.74,16.74,0,0,1-.24-3.69c-1.27-4.47-6.23-2.49-10.35-2.61-6.53-.19-15.3,1.88-13.29-10.07.26-1.57,1.17-4.71-1.64-4.73-3.57,0-7.78-1.79-10.64,2.15h0v0c3.54.35,10,.4,10.11,1.09a123,123,0,0,1,0,22.48c0,.5-6.36.81-9.71.57-2.52-.18-.95-2.45-.93-3.73.1-6.81.34-13.61.53-20.41h0c-1,3.66-.82,9.25-3.13,10.58-7,4-2.93-4.82-5.87-6.14a.77.77,0,0,0-.3,0c-6.12-.06-12.24-.13-18.36-.15-.43,0-.87.4-1.3.62.32.29.67.85,1,.82,6.92-.84,4.39,4,4.42,7.3,0,2.59,0,5.18,0,7.76q.94-4,1.88-8c.63-2.64-1.2-8.61,3.31-6.7,6.52,2.75.78,9.64,1.83,14.65.59,2.83-2,1.83-3.81,2.09-12.1,1.79-12.81-4.62-10.21-13.69a6.55,6.55,0,0,0-.31-2.65,2.44,2.44,0,0,0-.71,0c-.51,4.95-1.56,9.93-1.27,14.84.18,3,4,3.16,6.45,3.27,19.54.89,39.1,1.33,58.62,2.43,9.45.53,18,1.17,16.92-12.35-.27-3.41.36-6.88.58-10.32l0,0,0,0h0c-3.33-.51-7.6-.29-6-5.69,1.37-4.52,5.65-3.37,9-3.81,1.41-.19,3,.86,3.32-1.76.29-2.46-1.16-6.6,1.84-6.94,3.61-.41,10.27.77,10.71,2.5,1.11,4.41,1.17,11.18-1.51,13.83-2.45,2.43-9,.62-13.77.83a14.94,14.94,0,0,0-3.58,1.06v0c6.46,3.27,2.66,9,1.85,12.7-2.34,10.67,4.7,9.06,10.61,9.42.42,0,.88-.65,1.31-1-.4-.4-.84-1.18-1.19-1.15-12.84,1.31-7.72-7.93-8.29-13.93-.69-7.21,5.12-4.84,8.34-5.36,3.62-.59,6,1.11,5.2,5.71-1,6.23-1.55,12.56-2.08,18.86-.27,3.23-1.9,4-4.82,3.84-18.71-1-37.49-1.22-56.12-3-23.49-2.23-47.06-4.51-70.36-.74-9.13,1.47-18.2,3.35-27.24,5.39v1.67c11.66-3,23.39-5.74,35.49-6.6,40.2-2.85,80,5.56,120.22,5,5.57-.08,3.48-3,3.61-4.2,1.88-18.26,3.46-36.55,5.06-54.83A19,19,0,0,0,925.38,296.54Zm-75.88,50.7c-3.49-.68-11.7,3.84-9.63-6.22a45.88,45.88,0,0,0,.47-7.92c.06-2.09,2.84-3.13,2.87-2.89.86,5.67,6.6,7.13,10.14,10.15C851.5,343.38,853.43,348,849.49,347.24ZM876,344.52c-.07,3.84-1.65,4.29-5,4.46-5.15.26-4.3-2.91-4.09-6.43.55-1.44-1.83-4.54,3-4.81C875.52,337.42,876.07,340,876,344.52Zm12.61-3c-.41,3.6,1,8.79-5.11,7.41-3.13-.13-5.38.68-5.93-3.48-1-7.69,4-7,8.63-7.4C889,337.83,888.78,339.89,888.6,341.54Z"/><path class="cls-1" d="M761.3,360.59v-1.67m-.89-108.51h-2.59"/><path class="cls-1" d="M889.54,256.7c-27.45-8.25-55-16.15-82.29-24.93-4.48-1.44-8.42-2.57-12.34-2.65a10.25,10.25,0,0,1,1.09.27c29.8,9.19,59.68,18.1,89.51,27.21,1.59.48,4.35.42,2.82,3.9-7.61,17.34-21.59,26-39.52,29.25-4.19.76-3.22-3.15-4-5.15-1.15-2.9,1.51-1.22,2.43-1.65,3.52-1.64,9-2.42,10.11-5.08,1.43-3.27-.75-8.06-4.13-11.07-7-3.48-20.63-.48-15.29-15.85.08-.23-.16-.56-.25-.84-.26.24-.69.45-.75.74-1.31,6.09-5.72,13.23,5.27,15.14,2.49.43,4.85,1.63,7.27,2.47a75.52,75.52,0,0,1-7.52,3.14c-4.05,1.23-8.25,2-12.32,3.17-2.78.81-4.41-.44-4.65-2.82-1.14-11.5-7.17-9.18-15.82-7.79-15.63,2.52-15.67,9.37-9.42,20.86,2.33,4.29,3.1,9.42,4.59,14.17,1.25-5.84-3-10.67-3.17-16-.14-4.58-8.64-8.62-1.12-13.45,1.38-.89,4.16-2.87,5,.46,2.35,9.47,7.82,18.14,7.41,28.32,0,.08-.36.15-.55.23-10.66,4.57-19.32-1.8-18.45-13.54a6.59,6.59,0,0,0-.55-2.06c-3.3,1-6.6,1.9-9.87,2.95-.16.05-.18,1.06,0,1.53,1.31,3.84,2.63,7.67,4.05,11.47a25.19,25.19,0,0,0,1.77,3.24c.05-1.21.1-2.42.16-3.63.21-4-4.7-7.37-1.81-11.55.82-1.19,3.59-2.72,4.73.2,2,5,6.75,12.45,3.17,15.06-4.56,3.32-14.78,8.7-15.76-5.78-.73-10.71-7.68-4.66-12.61-3.84-2.83.48-4.79,1.31-5.41,2.93v2.65a11.64,11.64,0,0,0,1,2.39c1.56,3,2.38,6.32,3.53,9.51a107.4,107.4,0,0,1-2.06-10.95c-.7-7.95,7.95-3,10.24-7,0-.07,2.15.52,2.34,1.1,2.23,7,6.83,15.05-6.51,15.55-.49,0-1,.52-1.43.8a3.76,3.76,0,0,0,1.39.3c4.5-.9,9-1.68,13.47-2.82,15.59-4,31-9,46.74-12.1,24.52-4.86,49.32-8.34,60.52-35.66C891.33,257.46,891.22,257.21,889.54,256.7Zm-47.37,18.77c1.68-4.28,6.46-4.4,10.18-5.06,2.94-.53,3.36,3.52,2.93,4.93-1.35,4.46-6.65,3.12-9.11,5.56A4.3,4.3,0,0,1,842.17,275.48Zm-15.63,18.71c-12.23,7.41-13.13-2.39-15.37-10.14-.65-2.25-.86-4.73-2-6.71-6.69-12,3.93-12.25,10.06-13.21,3.21-.5,3.15,6.19,4.56,9.62.86,2.09-1.28,2-2.53,2.52A52.64,52.64,0,0,0,816,278.4c1.58,5.12,3.51,10.14,5.42,15.16a4.42,4.42,0,0,0,.94-.3c-.28-1.78-1-3.6-.87-5.32.33-3.39-7.95-8.72,3.52-10.34,1.54,4.62,3.35,9.42,4.7,14.35C830.37,294.41,827.66,293.51,826.54,294.19Zm17.31-4.94c-.35,4.23-7.3,1.19-11.74,4.79-1.58-5.46-4.36-10.25-3.87-14.67.54-4.79,7.18-2.13,10.33-4.66C840.51,279.57,844.23,284.58,843.85,289.25Z"/><path class="cls-1" d="M761.3,298.43v-2.65A4.25,4.25,0,0,0,761.3,298.43Z"/><path class="cls-1" d="M854.44,323.8v0h0Z"/><path class="cls-1" d="M904.05,328.13l0,0v0Z"/><path class="cls-1" d="M757.82,250.41h2.59l.89-.62v-1.85Z"/><path class="cls-1" d="M790.69,229.46a25.07,25.07,0,0,0-10.07,4.67q-9.61,7-19.32,13.82v1.85q11.42-8,22.9-15.9C786.42,232.36,788.29,230.37,790.69,229.46Z"/><path class="cls-1" d="M794.91,229.12a7.51,7.51,0,0,0-4.22.34A20,20,0,0,1,794.91,229.12Z"/><path class="cls-1" d="M890.57,342.79v.06l0,0a11.19,11.19,0,0,0-.27-3.72A16.74,16.74,0,0,0,890.57,342.79Z"/><path class="cls-1" d="M1117.85,468.06a16,16,0,0,0-2.58-.7q-17.2-1.78-34.41-3.49l-6.92-.68a95.35,95.35,0,0,1-11.18-.85c-1.48-.18-2.94-.42-4.39-.67l-71-7a36.77,36.77,0,0,1-3.78-.37l-37-3.62c-4.66-.45-10.55-1.59-11.09-6-1.05-8.58.11-17.44.39-26.18,0-.11.52-.28.8-.28,8.54.17,17.07.36,25.61.52,1,0,2.07-.15,3.1-.24-1-.51-2-1.46-3-1.47-7.86-.13-15.72-.07-23.59-.07-4.78,0-3-3.63-3.22-6-.24-2.81,1.54-3,3.81-2.79,7.82.59,15.69.73,23.48,1.58,7.38.8,2.91,7,3.93,10.6.58,2,2.31,6.62-1.3,7.34-5.61,1.12-11.53.68-17.32.91l-11.2.45c3.83.31,7.65.83,11.49.9,6.37.11,15.75,2.41,18.35-.75,3.26-4,1.62-12.58.79-19-.47-3.65-5.15-2.21-7.94-2.53-6.88-.79-13.82-1.09-20.73-1.63-5-.39-2.51-4.23-2.85-6.61-.41-2.87,1.8-2.2,3.51-2.1,22.11,1.36,27.61.92,28.4-8.26a9.74,9.74,0,0,1-.07-8.08v-.22a10.41,10.41,0,0,0-.88-2.61,22.9,22.9,0,0,0-.41,2.63c-.31,7.58,3.62,18.75-11.6,13.52h0c.33-.37.81-.7.91-1.12,1.49-5.93-3.75-15.88,9-15,.09,0,.21-.45.32-.7a4.61,4.61,0,0,0-1.37-.42c-7.63.16-15.26.4-22.9.49-1.54,0-3.74.05-4.44-.85a4.74,4.74,0,0,1,0-4.54c.68-.91,2.95-1.11,4.41-.9,11.56,1.66,23.21,2.28,34.88,2.8a26,26,0,0,1,8.3-1.16c3.86,0,7.73.13,11.6.32q-29-2-58-3.9c-3.12-.21-2.87,2.26-2.91,4.3-.34,21.08-.14,42.19-1.24,63.23-.52,9.88,3.49,13.91,12.38,15,17.1,2,34.17,4.31,51.31,6,39.27,3.78,78.57,7.23,117.86,10.78A10.51,10.51,0,0,0,1117.85,468.06ZM935.92,383.26c.47-2.72.74-4.29,4-4.26,3,0,4.76.4,4.83,4,.07,3.47,1,6.92,1.52,10.37,0-3.53,0-7.07,0-10.6,0-1.62-1-3.94,1.86-3.77,2.38.14,6-1.44,6.29,3.11.25,4,.4,8.1.6,12.16-2,.13-4.12-.08-6,.45C938.59,397.64,934,394.45,935.92,383.26Z"/><path class="cls-1" d="M1080.62,390.65c0-.08,0-.15,0-.23-4.9-4.85-8.89-11.69-16.17-12.26q-28.78-2.25-57.59-4.19c6.84.55,13.71,1.14,20.52,1.84a53.84,53.84,0,0,1,9.43,1.88c18.13-2.47,32,3.5,44,14.47C1080.76,391.68,1080.68,391.17,1080.62,390.65Z"/><path class="cls-1" d="M683.43,662.24a9.68,9.68,0,0,0,2.5-1.46c22-23.09,42.72-47.12,59.22-74.53,5.33-8.86,7.46-18.44,8.91-28.2-4.07,27.27-23.33,47.5-40.05,68.58C704.28,638.88,693.65,650.4,683.43,662.24Z"/><path class="cls-1" d="M727.9,518.11c.32,3-3.55,6.38-5.58,9.6-3.07-3.32-7.14-6.24-8.73-10.17-.43-1.05,1.31-3,3.31-5.13H714q-15.48,16.49-30.89,33c-21.7,23.35-47.54,41.44-73.45,59.46l.33.13a8.65,8.65,0,0,1,1.33-.53,8.89,8.89,0,0,1,4.85-3.12,17,17,0,0,0,2.59-1c.27-.21.54-.41.84-.6a11.09,11.09,0,0,1,1.55-.8,6.19,6.19,0,0,1,.68-.67c3.58-3.07,7.2-6.13,10.9-8,5.32-4.08,10.78-8,16.11-12.05.9-.69,1.8-1.39,2.7-2.09.23-.19.45-.36.67-.52,3.58-2.8,7.14-5.64,10.85-8.24l.26-.18c.84-.81,1.72-1.8,2.85-2,.94-.62,1.93-1.22,2.95-1.75A12.7,12.7,0,0,1,671,562c1.13-4.9,6.69-9.29,11.8-13.82,2-1.81,3.34-1.43,5-.18,1.88,1.43,1.89,3.17.09,4.61-4.25,3.41-5.51,6.32-4.29,8.84a9.82,9.82,0,0,1,2.52,2.76,21,21,0,0,0,3.95,2.17,18.66,18.66,0,0,0,2.12.64c-.35-.67-.55-1.74-1.08-1.94-9.14-3.49-5.33-8-.85-12.24,3.34-3.18.93-4.8-1.37-6.56-1.53-1.17-2.05-2.63-.28-3.64,2-1.11,2.64-5.62,5.62-3.42,8,5.91,15.82,12.31,2.58,21.09-1.21.8-2,2.3-2.86,3.56a5.52,5.52,0,0,0-.44,1.88c.61-.21,1.42-.23,1.79-.65,3.66-4.21,7-8.72,10.91-12.67s-3.37-5-1.38-9.52c3.12-7.13,11.56-.36,13.77-7.09,2.56-7.77,18.26-12.51,7.1-23.39h-1.78C725.94,514.34,727.69,516.14,727.9,518.11Zm-20.18,17.44c-.51,2.95-3.75,5.42-5.82,8.1-2.32-2.34-6.79-5-6.47-6.93.52-3,4.2-5.53,7.1-8.91C704.66,530.81,708.07,533.5,707.71,535.55Zm5.87,2.26c-3.32-3.63-7.41-6.88-9.49-11.11-.65-1.32,4.18-5.32,6.71-8.34,3.67,4.06,7.73,7.25,9.65,11.42C721.08,531.12,716,535.06,713.59,537.81Z"/><path class="cls-1" d="M761.3,464v-1.91m-37.39,50.28h1.78m-11.7,0h2.9"/><path class="cls-1" d="M768.76,457.05c-.07-.69-.18-1.38-.28-2.07a7.05,7.05,0,0,0-1.28.87l-5.9,6.27V464c1.27-1.4,2.53-2.81,3.81-4.2.7-.76,2.11-1.84,2.09.52-.05,9.27,0,18.55-.35,27.81-.29,9-2.86,17.39-5.56,25.83v0c-3.28,10.29-6.74,20.58-6.49,31.83a71.62,71.62,0,0,1-.74,12.09c1.19-8.08,1.92-16.26,3.61-24.25C763.06,508.25,771.37,483.54,768.76,457.05Z"/><path class="cls-1" d="M953.34,297.76c-18.63,3.87-8.29-9.09-10-14.93,4.39,0,8.78,0,13.16.14,3,.11,6.07.5,9.11.76-2.94-1.09-5.85-2.27-8.83-3.24-16.92-5.53-33.87-11-50.77-16.55-2.31-.76-3.46-.15-4.81,1.7-10.3,14.13-20.68,28.18-39.71,31.28-3,.49-2.3,2.7-2.14,5,.22,3.25,4.76,8.79-1.67,9.26-6.17.45-15,12.16-19.14-3.67-2-7.6-8.17-.55-12.38-.62-3.75-.07-1.95,2.84-1.53,4.93.66,3.34,4.32,8.83.05,9.59-5.75,1-14.76,11.58-18.24-3.12-.46-1.93-.44-5.06-3.35-4.67-3.5.46-7.67,1.11-10,3.32-1.21,1.16.93,5.83,1.56,8.91,2.3-.56,4.83-.68,6.85-1.77,3.44-1.85-.09-4.71.46-7.09a7.66,7.66,0,0,0-.12-2.16c.47.59,1.32,1.16,1.35,1.78.17,3,3.34,6.92.22,8.77-5.69,3.37-12.32,5.2-19,4.1-1.06-.17-1.35-4.5-2.19-6.83-.59-1.62-.87-3.92-3.51-3.37-1.74.36-3.41,1-5.12,1.56,1.31,2.31,0,5.87,3.7,7.11,2.24.74,4.25,2.2,6.37,3.33-.39.18-1,.63-1.13.51-2.77-2.26-7.28-.85-9.22-5.39-3.88-9.09,3.41-7.9,7.87-9.15,30.24-8.47,60.68-16.31,90.7-25.47C886,287.44,892.8,274,901.36,263c.48-.62,1.43-1.57,1.87-1.43,30,9.27,61.13,16,88.34,31.93,21.88,12.78,38.1,32.93,54.76,51.94,6,6.81,11.57,13.94,17.31,21a11.33,11.33,0,0,1,1.06,2,7.73,7.73,0,0,1-1.8-1.22c-20-24.35-41.31-47.35-65.3-67.8-3.82-3.26-7.84-6.59-13.24-7.1,3.75,3.16,7.12,7,11.32,9.34,13.63,7.62,20.59,20.38,27.12,33.58a7.56,7.56,0,0,1,.25,2.61,14.21,14.21,0,0,1-1.61-1.93c-2.75-4.77-5.5-9.53-8.13-14.36-1.36-2.51-2.79-2.7-5.05-1-3.93,2.93-8.12,5.5-12,8.47-1.35,1-4.84,1.61-3,4.1s3.6,7.52,8.66,3.69c2.6-2,5.4-3.67,8.14-5.44,1.46-.94,3-1.75,4.51-2.62a41.69,41.69,0,0,1-4,3.85c-2.28,1.72-4.94,3-7.06,4.85-1.25,1.11-5.5,1.08-3.31,3.57,2,2.25,3.18,8.8,9.1,4.08,3.22-2.57,7.18-4.21,10.81-6.27-3.25,2.47-6.66,4.75-9.71,7.44-4.09,3.61-6.72,2.88-10-1.45-3.83-5.1-8.82-9.31-13-14.14-2.77-3.18-9.07-5.85-2.58-11.46.31-.27-1.92-3.76-3.27-5.51-.35-.46-2.1-.4-2.79.05-4.05,2.69-7.43-.74-7.16-3C973.78,292.93,959.07,301.69,953.34,297.76Zm21.89-8.89c-2-.56-3.89-1.45-5.88-1.59-2.27-.16-5.87-3.78-6.48-.12-.58,3.48-4,8.84,3.7,11.33,11.78,3.79,6.61-5.76,8.64-9.65,2.09.78,4.17,1.57,6.27,2.32a4.12,4.12,0,0,0,.43-.73C979.62,290.18,978.15,286.44,975.23,288.87Zm16.59,13.46c-2,4.15-9.11,4.28-8.38,10.31.17,1.43,3.47,3.85,3.64,3.72,3.75-3,8-5.86,10.49-9.81,1.12-1.8-3.35-3.27-5.8-4.18-3-5.11-7.92-8.06-12.9-10.86-1-.59-2-.72-2.32,1.11-.74,3.87-2.06,7.64-2.72,11.52-.46,2.67-2.66,5.91.92,8,3.17,1.85,4.6-1.41,6.59-2.83C984.77,306.87,987.14,302.87,991.83,302.33Zm18.22,15.09c-2.87-3.54-4.73-10.36-8.48-9-7.53,2.72-13.41,8.94-18,15.68-.25.36,5.92,6.65,6.93,6.11C997.28,326.6,1003.5,321.88,1010.05,317.43Zm-185.12,0c-2-3.18-.81-8.67-4.85-8.59-4.7.09-10.57.59-13.48,5-.65,1,.41,9,4.47,8.92C815.52,322.63,821.46,322.6,824.93,317.42Zm121.26-33.52c-4.51,2.09-.83,7.75-2.64,11.41-.15.3,1,1.8,1.64,1.87,8.63.95,5.54-5.94,6.46-10C952.39,283.92,949.9,283.88,946.19,283.91Zm10.92.73c-2.38-.49-4.39-.47-3.76,2,.88,3.38-3.12,9,2.7,9.91,8.21,1.31,3.22-5.87,4.46-9C961.9,284.06,958.27,285,957.11,284.63Zm-168.9,43.2c1.83-.86,5.27.26,4.44-2.94-.76-2.9.81-7.83-4.3-8.09-1.86-.1-3.84,1.86-5.76,2.88C784.62,322.24,783.3,327.25,788.21,327.83Zm70.94-20.66c-2-2.36.42-7.13-4-7.84-1.89-.31-4.18,1.82-6.29,2.84,2.36,2.29-.16,7.27,3.9,8.12C854.58,310.67,857.92,310.54,859.15,307.17Zm-15,6.42c1.46-1.67,5.43-.49,4.87-3.85-.45-2.71.5-7-3.76-7.56-1.85-.23-3.95,1.57-5.93,2.44C841.08,307.38,839.58,311.9,844.14,313.59Z"/><path class="cls-1" d="M887.94,519.06a7.67,7.67,0,0,1-1.21-1.35c-6.83-.71-13.66-1.44-20.48-2.26-31.49-3.77-62.63-6.25-90.44,13.78-2.23,1.61-4.65,3-7,4.42.69-2.63,1-5.46,2.15-7.83,1.83-3.66-1.07-11.75,8.27-8.95,2.84.85,6.24-.15,9.39-.3-2.94-.39-5.88-.79-8.82-1.16-1.78-.23-4.29,0-3.58-2.77.49-1.94-.85-4.57,3.09-5.62,5-1.32,11.71,8.77,15.07-2.25.07-.22,1.73,0,2.65.1,8.65.61,17.29,1.55,25.94,1.68,3.34.05,8.59,1.45,9.9-2.26,2.35-6.66,4.07-13.93,4-20.93,0-5.72-6.46-1.87-9.64-3.58-1.6-.86-2.42.76-2.22,2.25,1,7.3-2,10.53-9,7.64-5-2.06-13.4,3.78-15.11-6.38-.1-.58-3.91-.56-6-.75-.3,0-.64.39-1,.6.16.23.3.64.5.66,12.52,1.75,3,11.21,5.64,16.48.91,1.82-.91,3.24-3.11,2.72-1.88-.45-5.18,1.16-4.61-3.2a60.47,60.47,0,0,0,.05-7.94L777.15,490c.22-5.6-.79-11.63,1-16.68,2.1-6-5.64-15.44,4.54-17.91,17.77-4.3,36.1-1.45,54.15-1.64,30.34-.31,60.73.77,91,2.39,14,.75,29.58-.13,40,12.32,10.76,12.9,20.63,26.55,30.87,39.89,10.37,13.49,18.11,28.55,26.14,43.45a15.54,15.54,0,0,0-.75-3.05c-11-24.61-27.29-45.88-43.35-67.24-8.59-11.43-17.39-23.79-33-25a1376.62,1376.62,0,0,0-144.72-4c-9.1.25-26.24-9.64-26.15,13.26.09,21.74-2.3,43.38-9.13,64.28-.51,1.57.09,3.51.17,5.27a26.8,26.8,0,0,0,4.77-1.95c12.15-7.89,24.13-15.57,39.09-17.91C837.48,511.46,862.64,516.73,887.94,519.06Zm-86.12-25.55c1.29-6,6-2.26,9-2.27,6.92,0,15.6-1.18,11.84,10.83-.11.34.49.9.75,1.36a6,6,0,0,0,1-1.77c.73-4.95,1.82-9.9,1.91-14.86.1-5.52,3.08-5.37,6.85-4.42,4.29,1.09,2,4.31,1.11,5.84-3.22,5.64,2.64,17.22-12.66,16.42-2.42-.23-7.06-1.37-11.55-.94C801.5,504.5,800.46,499.88,801.82,493.51Zm-21.24-.21c2.71-.45,9.41-3.54,10.46,3.43.83,5.5-.41,10.13-8.71,8.28-.88-.63-4.86,2.28-4.54-1.65C778.07,499.86,776.1,494,780.58,493.3Zm-3.49-2.07q-.07,2.81-.15,5.62h-.16ZM775,507.59l.45,2.48-.94,3.08a3.31,3.31,0,0,1-.25-1.1C774.46,510.56,774.74,509.08,775,507.59Z"/><path class="cls-1" d="M596.92,512.41h2.94"/><path class="cls-1" d="M659.8,541.86c-9-10.36-18.68-20.05-28.62-29.45H629c.82,1,1,2.22-1,4-4.52,3.92-8.53,8.43-12.69,12.75-.46.48-.52,1.35-.76,2,.62-.19,1.41-.2,1.82-.61,4.5-4.4,9-8.8,13.35-13.33,1.17-1.22,2.44-2.71,3.52-.66,1.77,3.36,8.68,5,5.91,9.17-4.74,7.15-11.29,13.09-17.07,19.56A13.78,13.78,0,0,0,621,547a7.14,7.14,0,0,0,1.93-1.06c5.21-5.59,10.3-11.31,15.61-16.8,1.2-1.25,3.62-2.87,4.62-2.42,1.71.77,3.83,3,3.87,4.69.17,7.15-18.79,20.29-25.39,18a9.64,9.64,0,0,0-2.69-.13A17.39,17.39,0,0,1,621.2,551c4.19,4.4,10.36-1,14.62,3,2.51,2.39,5.12,4.67,7.73,7a12.54,12.54,0,0,0,2,1.18c-.23-.79-.21-1.94-.73-2.32-5.33-3.85-4.59-6.66.79-10,3.17-2,5.61-5.3,7.93-8.37,1.49-2,2.34-2.2,3.88-.33,2.07,2.51,4.09,5.19,8,4.73C663.46,544.53,661.25,543.53,659.8,541.86Zm-6.63-3.79c-3,6.92-9,11.24-15.3,15-.34.2-3.5-3.29-3.35-3.48,4.57-5.77,9.39-11.33,14.72-17.58C650.91,534.46,653.65,537,653.17,538.07Z"/><path class="cls-1" d="M612.49,519.91c-2.74,2.42-6.92,4.94-5,8.77,6.81,13.46,13.82,14,23.37,2.51,1-1.17,2.33-2,3.2-3.28a52.37,52.37,0,0,0,2.85-5.14c-1.23,1.18-2.51,2.31-3.67,3.55-2.57,2.76-4.84,5.87-7.7,8.27-2,1.66-4.27,5.05-7.31,2.82-8.87-6.53-12.73-13.33.17-20,2-1,3.27-3.32,5-4.9l.1-.1h-2.94C617.91,515,615.24,517.48,612.49,519.91Z"/><path class="cls-1" d="M546.61,541.54c-1.91,3.27-6.95,7.18-3.75,10.73,15.16,16.85,31,33.08,46.6,49.53.63.67,1.21,1.61,2,1.86,3.73,1.22,4.75-3.12,7.56-3.87-2.77-2-3.63,1.75-5.66,1.83a5.12,5.12,0,0,1-2.7-.55c-7.26-4.36-8.22-9.4-1.76-15.45,1-.95,1.13-2.85,1.66-4.31-.84,1-1.48,2.47-2.56,3-2.89,1.41-1.47,8.9-7.29,5.65-7.5-4.19-5-8.35-.16-13.61,5.66-6.16,6.68.72,9.62,2.36.67.37,1.31.79,2,1.19a6.57,6.57,0,0,0-.76-2c-7.17-8.5-13.5-18-21.92-25.07-5.48-4.57-8.79-22.24-21.44-7.15-.13-.42-.51-1-.37-1.24a159.84,159.84,0,0,1,21.65-32h-2.44A240.47,240.47,0,0,0,546.61,541.54Zm10.47,1.21c2.7,1,7.64,3.95,1.82,8.51-2.29,1.8-3.29,5.25-4.84,8a8.75,8.75,0,0,0,.8.6,22.48,22.48,0,0,1,2.54-2.66c2.71-2,2.25-9.62,7.43-6.38s12.3,8.37,2.47,15.18c-1.37,1-2.09,2.85-3.11,4.31,1.46-1.07,2.88-2.19,4.38-3.19,2.32-1.54,3.58-6.52,6.36-4.82,3.36,2.05,7.69,6.63,7.33,9.61-.41,3.43-7.49,9.39-8.19,8.93-4.95-3.23-9.08-7.75-13.31-12C556,564,551.42,559.14,547,554.13c-.82-.92-4.31-2.06-1.23-3.92C549.69,547.82,550.93,540.49,557.08,542.75Z"/><path class="cls-1" d="M573.85,512.41h1.86"/><path class="cls-1" d="M596.06,515.55c-7.28,7.13-10.28,1.11-13.34-3.14h-2.1a99,99,0,0,1,8.76,9.31c2.21,2.82-2.46,3.44-3,5.61a6.7,6.7,0,0,1-2.25-.91C582.64,525,581.61,523,580,522c-4.42-2.79-6.3-5.83-4.24-9.58h-1.86c-2.26,2.19-2.46,4.7,2.28,8.18a39.69,39.69,0,0,1,7.32,7.34c2,2.57,2.47,2.11,5.19.07,4.68-3.51,3.44-16,14.45-10.24l2.91,1.52c-.7-1-1.18-2.4-2.15-3a10.36,10.36,0,0,1-4-3.85h-2.94C597.53,513.11,597.65,514,596.06,515.55Z"/><path class="cls-1" d="M629,512.41h2.15"/><path class="cls-1" d="M620.56,512.41h2.94"/><path class="cls-1" d="M580.63,512.41h2.1"/><path class="cls-1" d="M566.86,512.41h2.44"/><path class="cls-1" d="M927.28,194.64c-23.06-7.24-46.16-14.34-69.21-21.62-48.77-15.41-97.49-31-146.37-46.08-2.25-.69-3.72-5.65-7.94-1.68a175,175,0,0,1-19.23,16.24c3.17-1.57,6.36-3.29,9.62-4.73a63,63,0,0,0,5.27-4.73c5.43-5.5,9.71-4.72,16-2.71,55.5,17.78,111.11,35.22,166.69,52.77,14.24,4.5,28.58,8.73,42.64,13.73,6,2.13.79,6.59,0,9.27-4.24,15.15-9.21,30.1-13.94,45.12-9.08,5.51-16.93-1-24.72-3.35-30.93-9.4-61.66-19.5-92.46-29.35a50.57,50.57,0,0,1-6.32-1.8c-2.81-.69-5.57-1.59-8.32-2.55-4.67-1.14-9.51-1.86-14.26-2.67,42.62,13.31,85.11,27.06,127.79,40.2,5.54,1.71,12.49,8,18.27-.47,1.08-1.13,2.73-2.09,3.14-3.43,5-16.79,9.9-33.63,14.71-50.49C928.8,195.9,927.89,194.83,927.28,194.64Z"/><path class="cls-1" d="M565.54,216.77a4,4,0,0,1-.48-.2,5.17,5.17,0,0,1-.61.51,9.2,9.2,0,0,1-4,1.54c-11.26,7.14-22.66,14.07-33.78,21.42q-7.63,5-15,10.38h2.78A514.41,514.41,0,0,1,565.54,216.77Z"/><path class="cls-1" d="M613.89,250.41h-1.05"/><path class="cls-1" d="M514.4,250.41h-2.78"/><path class="cls-1" d="M598.67,220.31a4.18,4.18,0,0,1-2.35-.94c6,10.13,11.37,20.52,16.52,31h1.05Q606.38,235.31,598.67,220.31Z"/><path class="cls-1" d="M932.09,187.3c-21.25-6.44-43.75-13-66.08-20.08-51.45-16.33-102.81-32.92-154.23-49.35-1.49-.47-2.31-.7-1.16-2.36A516.4,516.4,0,0,0,749.21,50c1.66-3.35,3.28-9,10.83-5,62,32.51,126.27,60.9,184.46,100.46a10.32,10.32,0,0,1,1.65,1.83,14.94,14.94,0,0,1-3.26-1.21C908,122.87,871.41,102.71,834.12,83.76q-38.34-19.49-77-38.27c-4.82-2.35-4,4-6.4,5.77-1.67,1.23.21,2.45,1.58,3,12.27,4.51,13,10.35,4.56,20.55s-15.07,21.84-21.31,33.5c-4.54,8.48-9,6.18-14.66,2.27-5.33-3.68-6.16,2.18-7.5,4.48-1.55,2.67,2.2,2.25,3.56,2.72,58.81,20.48,118.18,39.16,178,56.48,13.19,3.82,26.28,8,39.41,12a5.18,5.18,0,0,1,1.17.75ZM749.89,54.1c-4.8,8.5-9.31,16.1-13,24.08-.2.43,9.48,6.44,9.9,5.95a117.1,117.1,0,0,0,14.34-21.06C761.56,62.29,754.24,57.51,749.89,54.1Zm-14.44,50.44c-4.11-1.53-7.66-3.76-11.25-3.81-1.91,0-3.87,3.74-5.81,5.79,3.55,2.17,6.92,5.23,10.76,6C730.53,112.86,733,107.73,735.45,104.55Zm6.35-10.19c1.69-2.73,4.42-6.63,4.18-6.83A42.31,42.31,0,0,0,735.44,81c-.58-.23-3,4.18-4.59,6.44ZM736,102.81c1.5-2.06,4.58-4.49,4.2-6.12-1-4.41-6-4.88-9.51-5.56-3-.58-5.31,4.08-4.79,6.1C726.92,101.25,731.91,100.61,736,102.81Z"/><path class="cls-1" d="M741.14,250.41h-1.71"/><path class="cls-1" d="M777.93,221.82q-8-2.9-16-5.53a4.23,4.23,0,0,1-1,1c2.43.82,4.84,1.7,7.21,2.67a5.43,5.43,0,0,1,2.4,1.85l2,.67c2.59.84,2.56,1.86.5,3.37l-33.61,24.54h1.71c12.16-8.73,24.35-17.4,36.43-26.22a10.82,10.82,0,0,0,1.57-1.79A12.92,12.92,0,0,0,777.93,221.82Z"/><path class="cls-1" d="M607.62,220.63a38.23,38.23,0,0,1-4.18-4.87c5.8,11.74,12.34,23.09,18.51,34.65h.7C617.67,240.47,612.69,230.53,607.62,220.63Z"/><path class="cls-1" d="M622.65,250.41H622"/><path class="cls-1" d="M329.45,209.74l.36-.44a6.58,6.58,0,0,1-1.72-.79c-.78,1.15-1.54,2.31-2.27,3.51a413.2,413.2,0,0,0-20.34,38.39h2.3C313.79,236.16,319.83,221.94,329.45,209.74Z"/><path class="cls-1" d="M307.76,250.41h-2.3"/><path class="cls-1" d="M465.78,249.06q-11.17-13.45-22.31-26.93-1.27-.76-2.51-1.54,12.3,14.92,24.63,29.82H467C466.57,250,466.16,249.52,465.78,249.06Z"/><path class="cls-1" d="M467,250.41h-1.37"/><path class="cls-1" d="M761.3,370.75v-1.6"/><path class="cls-1" d="M761.3,431.29v-3.14"/><path class="cls-1" d="M761.92,431.91l3.83,1.94-1,.86c6.81,4,13.67,8.28,21.81,8.63,24.25,1.07,48.52,1.85,72.78,2.72a7.62,7.62,0,0,0,1.71-.33,8.26,8.26,0,0,0-1.8-.51c-14.77-.77-29.55-1.39-44.31-2.28-16.45-1-34,2.79-48-9.83q-2.79-2.52-5.64-5v3.14Z"/><path class="cls-1" d="M918.46,365.52c-7.94-.44-15.9-.67-23.85-.88-27.9-.75-55.63-7.35-83.53-4.51a372.78,372.78,0,0,0-49.78,9v1.6c17.79-4.76,35.73-8.67,54-8.88,32.84-.37,65.72,3.3,98.58,5.3,4.78.29,11.26-1.74,11.16,6.7-.18,15.19-.29,30.39-.72,45.58-.7,24.71-.8,24.71-25.31,25.83a7.92,7.92,0,0,0-1.85.55,6.91,6.91,0,0,0,1.88.56q10.73,0,21.45,0c2,0,5.1,2.08,5.17-2.22.4-23.27.85-46.53,1-69.8C926.76,369.26,923.86,365.82,918.46,365.52Z"/><path class="cls-1" d="M454.28,107.71c-14.31,10.14-28.13,21-41.75,32.2,2.59-1.55,5.31-2.88,8-4.28,10.16-8.25,20.45-16.31,31-24A27.68,27.68,0,0,1,454.28,107.71Z"/><path class="cls-1" d="M478.62,242.66a9.14,9.14,0,0,1-1.59.2l6.17,7.56H485Z"/><path class="cls-1" d="M548,216.76l-.26-.19c-2.8,1.86-5.32,3.87-8.6,4.94a3.57,3.57,0,0,1-1,.16c-13.61,9.83-27.54,19.24-41.39,28.74h3.83Q524.24,233.6,548,216.76Z"/><path class="cls-1" d="M1062.71,212.9a371.75,371.75,0,0,1,30.64,22.48,10.23,10.23,0,0,1,1.26-1.13c-39.66-32.29-85-55.49-129.67-79.62a13.06,13.06,0,0,0-3.42-.78,21.52,21.52,0,0,0,2.78,2.09C997.8,173.71,1030.95,192.15,1062.71,212.9Z"/><path class="cls-1" d="M1111.09,285.54c-28.72-30.33-60.81-56.45-100.67-72.45-20.87-8.38-42.58-14.66-63.21-21.67l-2.54,1.08a9.89,9.89,0,0,0,2,1c65.93,15.22,121.82,46.76,166.71,96.37A28.12,28.12,0,0,1,1111.09,285.54Z"/><path class="cls-1" d="M1079.06,365.21c-1.51,0-3-.73-4.58-2.53-24-27.13-47.49-55.13-76.24-77.29-21.55-16.61-49.35-20.08-74.73-28.44-.45-.15-1.07.24-1.61.38a5.87,5.87,0,0,0,1.26.93c32.07,12.31,68,15.94,92.62,44.61,15.43,18,34.63,32.56,48.63,52.06,3.49,4.86,8.92,8.32,13.45,12.42.67-.3,1.3-.56,1.9-.8A9.89,9.89,0,0,1,1079.06,365.21Z"/><path class="cls-1" d="M970.69,209.46c59.2,19.23,110,50.87,147.5,101.52,1.47,2,4.25,4.34,5.78,6.58h.93a27.56,27.56,0,0,0-2.78-4.41,269.6,269.6,0,0,0-45.27-48.26c-39.93-33.07-85.89-53.34-136-65.06a6.1,6.1,0,0,0-1.73.1,6,6,0,0,0,1.53,1C950.68,203.81,960.81,206.25,970.69,209.46Z"/><path class="cls-1" d="M799.19,579.11c-7.31-9.78-14.66-19.54-21.91-29.37a14.74,14.74,0,0,1-1.41-3.63c-1.23,1.28-2.89,2.34-3.64,3.86-5.93,11.93-11.06,24.3-17.62,35.87-12.16,21.46-28.2,40-43.87,58.89a8.72,8.72,0,0,1,1.05-.14c1.75-2.7,3.69-5,6.37-5.5q1.11-1.87,2.32-3.71l-.05,0,.38-.46c1.09-1.63,2.21-3.26,3.42-4.85,7.95-10.49,16.49-20.38,23.71-31.43,3.33-5.1,6.26-10.35,10-15.15.24-.31.5-.63.78-1,0-.2.07-.41.13-.61a22.07,22.07,0,0,1,2.13-5.17,9.65,9.65,0,0,1,1.1-1.9c1-1.71,2.14-3.39,3.12-5.16a3.75,3.75,0,0,1,.07-3.31c1.77-4.65,4.38-9,6.57-13.47,1.89-3.87,3.31-3,5.56,0,6.81,9.13,13.92,18,21,27,.4.51,1.29.64,1.95.94C799.95,580.23,799.6,579.65,799.19,579.11Z"/><path class="cls-1" d="M790.65,548.31a15,15,0,0,1,.31-3.14c-1.47,1.75-2,3.69,0,6.17A16.15,16.15,0,0,1,790.65,548.31Z"/><path class="cls-1" d="M1050.86,581.34c-1.41-1.1-3.61-2-4.31-3.51a529.32,529.32,0,0,0-66.93-108.49c-1.55-2-3.62-5.64,1.57-6.26,2.74-.33,5.62.22,8.4.63,41.8,6.1,84,7.23,126,11.31a27.53,27.53,0,0,1,5.26,1.59c-1.89-.18-3.79-.39-5.68-.54-31.73-2.49-63.48-4.87-95.2-7.51-12.25-1-24.45-2.65-36.68-3.91-1.13-.12-2.33.47-3.49.73a11.76,11.76,0,0,0,1,2.66c9.09,12.8,18.11,25.65,27.41,38.29,2.64,3.59,4.27-1.26,6.53-1.58a15.67,15.67,0,0,0,2.87-1c-.58.85-1.19,1.69-1.74,2.57-1.1,1.74-5.36,1.49-4,4.37a46.53,46.53,0,0,0,8.18,11.6c.39.41,5.81-3,7.71-5.53.69-.92-1.74-4.74-3.37-6.71s-2.85.31-4,1.31c-1.61,1.43-2.63,3.81-5.44,3.06a56.85,56.85,0,0,1,3.83-4.56c.91-.89,3.13-1.42,3.12-2.09,0-1.46-1.09-2.91-1.73-4.36,2.27,2.58,4.94,4.93,6.71,7.82,2,3.34,3.82,5.43,7,1.49,3.36-4.16,5.93-2.85,8.58.75,3,4,6.21,7.84,9.13,11.9a55.18,55.18,0,0,1,3.47,6.39c-1.26-1.37-3.25-4.11-3.67-3.89a116.19,116.19,0,0,0-16.1,9.68c-2.23,1.69,1.48,3,2.14,4.7.27.69.59,1.36.89,2a11.71,11.71,0,0,1-1.73-1,61.12,61.12,0,0,1-6.19-5.33c-2.45-2.65-4.57-5.61-6.83-8.44,1.57,3.36,3,6.77,4.73,10.07,6.29,12.35,12.58,24.7,19.09,36.94.73,1.37,2.83,2,4.37,2.93a7.55,7.55,0,0,0,2,.51ZM1050,525.6l-11.32-14.1c-5.27,4.28-11.41,7.95-15.21,13.28-1,1.35,6.8,12,8.36,11.53C1038.18,534.27,1043.72,529.57,1050,525.6Z"/><path class="cls-1" d="M301.48,531.47l3.36-3.31,8.61-15.75h-1.61Z"/><path class="cls-1" d="M404.23,512.41c-4,5.6-8.09,11.18-12.32,16.63-15.54,20.07-30.91,40.27-46.37,60.41-.58.75-1.25,1.43-1.88,2.14.85-.43,2-.65,2.52-1.33,14-18,27.44-36.47,41.92-54.08,6.25-7.6,11.87-15.68,17.48-23.77Z"/><path class="cls-1" d="M404.23,512.41h1.36"/><path class="cls-1" d="M311.84,512.41h1.61"/><path class="cls-1" d="M700.14,512.41c-1.66,1.45-3.8,3-4,2.75-.88-.81-2-1.77-3-2.75h-1.75c1.44,1.45,2.88,3.11,4.4,4.42L685.6,527.12c-2.83-3.53-7.05-6.77-7.89-10.72-.19-.89.89-2.49,2.39-4h-2a5,5,0,0,1-.79.69c-2.64,1.88-4.93,8-9.17,1.43a15.75,15.75,0,0,0-1.68-2.12h-2.76a5.37,5.37,0,0,0,.34.42c3.13,3.27,9.47,6,1.65,10.9-.36.23-.4.95-.6,1.44,1.24-.47,3-.57,3.65-1.47,6.16-8.55,9.86-3.42,13.71,2.19,1.29,1.88,1.3,3.65-.78,4-4,.76-4.68,9.67-10.3,4.9a124.13,124.13,0,0,1-15.51-16.45c-2.38-2.91-.33-4.51,1.65-6h-1.9l-2.72,3.28a2.08,2.08,0,0,0-.11,2c6.15,6.34,12.51,12.49,18.54,19,2.44,2.61,4,2.17,6.2-.09q11.89-12.09,23.85-24.13Z"/><path class="cls-1" d="M700.14,512.41h1.23m-10.05,0h1.75m-15,0h2m-24.49,0h1.9"/><path class="cls-1" d="M663.69,512.41h2.76"/><path class="cls-1" d="M560.17,124.29a105.61,105.61,0,0,1-9.66-25.84,10.18,10.18,0,0,1-1.24-.63l-.35.28a118.14,118.14,0,0,0,7.69,21.79Z"/><path class="cls-1" d="M571.85,133.72c.91-.29,1.81-.6,2.69-.94a21.47,21.47,0,0,0,6.3-4.3c-3.75,0-6.72,7.52-11,1.66-2.66-3.64-2.43-6.18,2.36-8.51,4.49-2.18,7-2.31,8.32,2.91a24.7,24.7,0,0,0,1.18,3.19l.85-.73.29-.22c-3.56-8-7.25-15.93-10.94-23.87-.21-.44-1-.63-1.47-.94.05.62-.13,1.44.19,1.84,2.9,3.58.7,5.11-2.38,6.55a41.15,41.15,0,0,0-4.69,3c2.05-.58,4.12-1.12,6.15-1.76,1.46-.46,3.05-2.89,4.34-.4,1.07,2.06,2.36,6,1.54,6.69-2.62,2.16-8.57,4.94-9,4.37-3.08-4.21-6-9-7.15-14-.67-3,4.1-3.75,6.85-4.94a17.63,17.63,0,0,0,2.23-1.37c-.19-.2-.48-.62-.57-.58a82.22,82.22,0,0,0-9.34,4.07c-2.13,1.21-1.29,3.25-.34,5.13q5.24,10.32,10.38,20.7A6.63,6.63,0,0,1,571.85,133.72Z"/><path class="cls-1" d="M840.43,523.8a11.08,11.08,0,0,1,3.12-.73,21,21,0,0,1,6.71.69c1.08-.08,2.17-.22,3.24-.22a54.23,54.23,0,0,1,8.68.92c.62.1,1.24.21,1.86.33,1.6-.26,3.2-.58,4.79-.85q-21.25-1.49-42.63-1.56c-15.12,0-27.65,7-39.77,15-1,.66-1.37,2.3-2,3.49a28.46,28.46,0,0,0,3.1-1.89c9.53-7.57,20.12-13.37,32.27-14.42,6-.51,11.91-.7,17.86-.69Q839,523.8,840.43,523.8Z"/><path class="cls-1" d="M729.18,534.71c.31-1.39.61-2.78.88-4.19A12.07,12.07,0,0,0,729.18,534.71Z"/><path class="cls-1" d="M748.24,517.55c-3-1.28-5.86-4.17-9.7-2.42v0h0c-2.7,3.81-7.09,7.34-7.77,11.48q-.32,2-.69,3.89c.68-1.6,1.77-2.86,3.39-3,3.86-.4,8.12,3.06,12.9,5.13-3.39,3.58-.13,9.25-4.31,9.35s-10.79.32-12.58-4.65a7.55,7.55,0,0,1-.29-2.61c-3.63,16-10.24,30.53-21.83,42.54-3.16,3.27-4,5.63-3.35,7.51,1.14.48,2.27,1,3.38,1.54a12.59,12.59,0,0,1-2.08-2.9c-.44-.85,2.89-3.65,4.47-5.55,4.54,4.08,9.1,8.14,13.46,12.41.1.1-2,2.49-3.5,4.28a49.31,49.31,0,0,0-4.7-3,21.37,21.37,0,0,1,3.47,4.28,2.6,2.6,0,0,0,2.22-.58c9.5-7.75,16.55-17.87,21.51-29.22,6-13.77,1.13-29.35,7-43.16C750.14,520.84,750.45,518.49,748.24,517.55ZM724.1,587.12c-3.64-5-17.23-5-9.93-16.47,2.25-3.55,3.76-.69,5.23.52,4,3.3,7.85,6.79,11.75,10.21h0C728.31,583,726.47,590.37,724.1,587.12Zm7.07-5.76c-2-5.41-7-7.91-11.05-11.29-2.33-2-3-3.21-.86-5.76,2.31-2.75,3.91-.24,4.56.83C726.86,570.25,739.7,571.09,731.16,581.36Zm4.8-8.93c-4.68.08-9.49-7.54-14.24-11.76,2.74-2.48,1.8-8.93,9.23-7.34,2.84,2.87,11.09-3.53,11.88,4.21C743.4,562.93,741.32,572.34,736,572.43Zm6.05-19.8c-4.94-1.15-11,1.17-14.51-3.71-.63-.89-.29-8.23,2.61-7.4,4.85,1.38,12.6-.8,14.38,6.58C743.7,550.4,745,553.32,742,552.63Zm4.34-25.26c-.53.87-1.29,2.62-1.38,2.58-3.76-1.54-7.48-3.21-11.09-5.06a17,17,0,0,1,1.3-3.34c1.07-2.16,2.23-4.26,3.35-6.39C743.33,517.82,752,518,746.35,527.37Z"/><path class="cls-1" d="M501.89,512.41h2.36"/><path class="cls-1" d="M554.66,512.41q-9,12.93-17.88,26c-1.74,2.57-2.59,2.79-4.89.57q-13.79-13.31-27.65-26.54h-2.36q8.78,8.24,17.55,16.49c5.57,5.25,11.1,10.55,16.6,15.78.5-1.43.84-4,2.15-5.9q9.05-13.23,18.25-26.37Z"/><path class="cls-1" d="M554.66,512.41h1.77"/><path class="cls-1" d="M297.15,250.41h-2.08"/><path class="cls-1" d="M310.36,219.58a39.47,39.47,0,0,0-3,4.92c-1.07,2.18-2.81,7.5-5.45,10.18q-3.46,7.86-6.89,15.73h2.08C301.42,240.07,305.74,229.75,310.36,219.58Z"/><path class="cls-1" d="M603.59,105.51c5.12-3,10.27,0,15.4-.11,12.61-.33,18.51,4.29,13.84,17.61-.58,1.65-2.64,5.34.64,5.6,4.64.37,12.46,1.26,13.44-2.65,2.35-9.42,6.18-21.06-8.53-25.4-.82-.24-2.17-.42-2.56,0a22.42,22.42,0,0,0-2.39,3.95l.36-6.63c1.54.27,3.28.17,4.58.88,9.35,5.08,18.68,10.21,27.78,15.72.91.55.7,3.85.2,5.65-.79,2.85.13,7.23-4.73,7.38-12.7.38-25,4.81-37.92,3.27-.66-.08-2.06.94-2.09,1.5-.34,7.11-4.22,7.54-9.8,5.63-4.39-1.5-12.9.91-12.94-3.07-.1-9.77.45-20,4.76-29.38-1.15,8.18-2.38,16.34-3.36,24.54-.19,1.58.65,3.29,1,4.94,5.64-3.54,16.15,10.73,18.52-5a1.94,1.94,0,0,1,1.56-1.09c12.69,3,8.69-7.25,10.39-13,1.56-5.25-.65-6.94-5.84-7.33C618.44,108,611,106.56,603.59,105.51Zm45.89,21.22c5.62-.53,8.15-.91,10.69-1,5.94-.18,5.12-6.9,4.33-7.69-3.74-3.71-8.51-6.38-12.91-9.42Z"/><path class="cls-1" d="M584.93,562c2.64,2.17,5.46,4.2,7.93,6.6,3.37,3.27,6.14,3.63,9.09-.55,1.38-2,2.42-4.11-.13-4.93-4.18-1.35-5.31-11.54-11.75-5-5,5.13-6.86,1.81-10.14-1.48-4.42-4.44-9.07-8.85-14.31-12.2-10-6.41-7.33-12.35-.3-18.67a5.12,5.12,0,0,1,1.23-.8c.08,0,.56.43.52.54-3.24,8.82,7.44,7.69,9.22,12.9a11.11,11.11,0,0,0,3.13-1.29c1.46-1.22,1.72-2.72,0-4.11-3.47-2.84-6.94-5.68-10.38-8.56a5.91,5.91,0,0,1-.94-1.45c.45-.07,1.09-.37,1.31-.18,4.6,4,9.61,7.66,13.24,12.39.59.76-3,5.71,1.79,8.1,2.12,1.07,3.34,1.6,5.21-.35,1.22-1.27,3.38-3.92,5-1.77,5.34,7,18.39,11.89,16.26,19.64-3.77,13.75-18.07,14.26-26.52,2.82a5.19,5.19,0,0,1-.5-1.32Zm13.79-14.5c-6.59-5.7-15.81,2.76-19.43-6-.79.42-2,.64-2.29,1.28-.92,2-4.27,3.93-2.09,6.27,3.36,3.6,7.81,9.39,11.16,9C590.34,557.54,594,551.78,598.72,547.53Zm-21.9-6.93c-4.5-3.56-8.34-6.78-12.5-9.51-.32-.21-4.36,4.35-4.24,4.48,3.58,3.92,7.46,7.56,11.3,11.24Zm22,6.68c-1.84,2.52-4.41,5.36-4.1,5.71a88.48,88.48,0,0,0,10.53,10.18c.28.23,2.81-2.27,4.3-3.5Z"/><path class="cls-1" d="M1091.16,219.62c-31.43-23.4-66.17-41.79-99.29-62.62-8-5-16.69-9-24.89-13.36l-1.15.34a14.91,14.91,0,0,0,2.05,1.71c10.53,6,21.32,11.61,31.58,18.06,26.15,16.44,53.94,30.25,78.83,48.72q6.33,4.7,12.64,9.41A9.9,9.9,0,0,1,1091.16,219.62Z"/><path class="cls-1" d="M826.83,141.67l-1.32.46c1.25-4.57,2.08-9.32,3.92-13.64,1.1-2.58,4-.84,6.08-.35,5.76,1.35,11.48,2.88,17.26,4.09,1.07.23,3.36-.53,3.45-1.09,1.76-11.34,9-10,17-7.8s18.67,1.72,11.92,15.33c-1.45,2.92.36,4.31,3.33,5,4.37,1,8.57,2.84,13,3.56,3.23.53,7.09,4.34,9.93-1.75,1.22-2.61.51-11.19,6.19-6.85,7.12,5.43,27.48-4.12,20.89,17.43-1.67,5.46-2.9,11-4.43,16.54-.18.64-1,1.12-1.45,1.68a6.86,6.86,0,0,1-.15-2.11c1.35-5.43,2.86-10.83,4.14-16.28.74-3.17,2.1-9,1.55-9.23-7.42-2.71-15.12-4.65-22.77-6.72-.17,0-.58.51-.76.85-1.85,3.5-4.25,10.22-5.43,10a134.27,134.27,0,0,1-25.41-7.4c-.77-.3.45-7.19,1.7-10.68s.44-4.43-2.79-5.08c-4.79-1-9.48-2.38-14.26-3.38s-9.22-1.15-10,5.51c-.83,7-5.62,4.39-9.53,3.64a16.64,16.64,0,0,1-4.71-1.29c-10.8-5.78-16-1.61-17.35,9.58Z"/><path class="cls-1" d="M400.35,138c26-20,52.07-39.88,80.11-56.69-.53,0-1.06,0-1.59-.11a26.58,26.58,0,0,1-4.13,1.67c-28.18,16.53-53.08,37.75-79.22,57.2Q397.92,139,400.35,138Z"/><path class="cls-1" d="M986.88,354.47c-15.11,0-30.23.14-45.34-.07-6-.08-1.72-5.75-3.78-8.12-.11-.13.5-.88.77-1.34a7.64,7.64,0,0,1,1.2,2.16c.2,1.08-.45,2.59.08,3.3,2.8,3.76,7.16,2,10.83,2.61,2.9.51,2.37-2,2.5-3.78.28-3.76-1.77-4.65-5.11-4.6a55.73,55.73,0,0,1-7.56-.87c2.62-.18,5.25-.51,7.87-.52,5.72,0,11.45.39,17.14.1,5.21-.27,2.29-4.34,2.6-6.82.28-2.27-2-6.32,2.55-5.7,3.28.45,10-5,9.64,4.32-.25,6.09.26,11.56,9.06,9.19,2.07-.56,4.84.06,4.44,3.72C993.3,352.42,994.92,358.34,986.88,354.47Zm-17.12-14.55c0,5.16-.08,7.1,0,9,.09,1.56.25,4.39.66,4.45,2.54.32,5.39.58,7.62-.36.88-.37.39-3.9.59-6,.11-1.18-3.12-1-.76-3.7,1.73-2,.74-6.76,0-10.09-.13-.64-6.34-1.15-6.64-.42A25,25,0,0,0,969.76,339.92Zm-6.56,12.43c.26-.16,4.27,3.48,4.71-2.15.59-7.45-5-4.66-8.3-5.22-1.48-.25-4.5-1.81-4.75,1.69C954.56,351.06,955.18,355,963.2,352.35Zm23.61,2.11c5.49,1.7,5.82-3,5.16-6.67-.78-4.29-5.15-1.63-7.81-2.27-4.49-1.07-3.52,2.93-3.76,5.36C979.94,355.53,983.48,354.22,986.81,354.45Z"/><path class="cls-1" d="M275.83,250.41h-5"/><path class="cls-1" d="M284.33,250.41h-1.8"/><path class="cls-1" d="M272.81,238c4.58-4.86,8.91,2.68,13.74,3.06l-4,9.35h1.8q4.8-10.82,9.61-21.64a4.75,4.75,0,0,1-2.48-2.76c-3.79-1.27-7.32-3.4-10.94-5.22.13-.21.26-.44.39-.68l-.36,0c-.16.06-.34.1-.51.14l-.13.06a4.62,4.62,0,0,1-3.18,1.5c-4.71,8.56-7.21,18.37-11.56,27.17l1.86.11,3.75,1.29h5C270.59,248,266.28,244.93,272.81,238Zm6.83-13.81c3.78-.16,10.59,2.07,10.91,4.14.61,3.93-2.45,8.44-4,12.71a41.46,41.46,0,0,0-4.58-4c-2.26-1.49-6.93-3.12-6.76-3.83C276,229.84,277.92,224.26,279.64,224.19Z"/><path class="cls-1" d="M732,35q-.69.5-1.42.94c2.66,1.13,5.36,2.19,8.13,3.13a29.83,29.83,0,0,0,4.52.8,23.67,23.67,0,0,0-3.84-2.11C736.93,37,734.47,36,732,35Z"/><path class="cls-1" d="M710,60.33c-1.61-1.08-3.17-2.22-4.69-3.38a17,17,0,0,1-4.7-.93A55,55,0,0,0,721,67.34l2.78-.61a17.44,17.44,0,0,0-2.11-1.29C717.76,63.74,713.45,62.66,710,60.33Z"/><path class="cls-1" d="M921,416.42c.41,8.86.79,16.18,1,23.5,0,.51-1.08,1.46-1.71,1.51a67.27,67.27,0,0,1-7.35.06c-4.26-.15-8.51-.41-12.77-.62,4.68-.35,9.49-1.53,14-.85,5.21.78,5.67-.9,6-5.46.68-10.38.75-19.57-13.8-17.94-1.48.17-3.38-1-4.05,1.48-.59,2.17-.42,3.94,1.78,5.22,4.58,2.66,9.1,5.42,13.6,8.21.48.3.66,1.09,1,1.65a6,6,0,0,1-1.91-.41c-2.61-1.58-5.09-3.4-7.77-4.86-3.43-1.87-7-3.48-10.51-5.21-.37,4-.7,8.06-1.12,12.08-.17,1.64-.57,3.25-.86,4.87a39.59,39.59,0,0,1-.55-4.29c-.31-13.7,8.94-26.1,5.57-40.27A5.31,5.31,0,0,1,904,394C922.48,392.77,923.9,403.92,921,416.42Zm-12.21-9.84c-1.45,1.19-5.85-2.95-6,1.53-.55,12.17,10.58,4.81,15.33,8.41a3.42,3.42,0,0,0,1.8-1.61C921.7,405.61,915.16,406.48,908.77,406.58Zm10.57-7.35c-2.47-4.5-9.68-1.31-14.82-3.24-2.22-.83-2.39,1.83-2.21,3.35,1.25,11,10,2.8,14.57,5.5C918.92,406,920.28,404.44,919.34,399.23Z"/><path class="cls-1" d="M899.36,378.72c-.07-.68,2.47-6.21-5-5.75-1.83.11-5.26-.11-4,2.34,2.29,4.54-6,13,5.16,14.06A5.46,5.46,0,0,1,897,390a7.82,7.82,0,0,1-1.72.34c-10.09-.27-20.56,1-30.14-1.42-5.86-1.45-1.41-9.92-2.66-15.08-.53-2.21,1-3.53,3.51-3.45,17.44.53,34.88,1,52.32,1.56a6.86,6.86,0,0,1,2.56.87c-.9,3.4-1.08,8.81-3.15,9.69-3.82,1.62-8.77.59-13.25.59-.28,0-.56-.64-.84-1a8.26,8.26,0,0,0,2.48-.75c3.65-2.59,10.69,5.2,12.16-4,.51-3.22-1.47-4.18-3.65-3.5-4.46,1.39-10.4-4.14-13.5,2.75-.61,1.36,0,3.24-.14,4.86-.27,2.62-.74,5.22-1.12,7.82Zm-35.84.95c1.74,3-3.06,9.94,5.08,8.25,7.8-1.62,2-8.15,3.31-12.25,1.23-3.94-2.27-4.08-4.95-3.89C860.43,372.23,865.56,377.31,863.52,379.67Zm25.56,1.65c-1.7-3,2.56-9.81-4.22-8.57-7,1.28-1.32,8.36-3.19,12.53-1.2,2.69,1,3.52,3.59,3.51C892.13,388.77,886.92,383.42,889.09,381.32Zm-15.72-1.63c.48,4-1.6,10.6,4.93,8.39,5.23-1.77.89-8.57,2.22-13,1-3.36-2.37-2.91-4.3-2.73C869.92,372.89,875.37,377.87,873.37,379.69Z"/><path class="cls-1" d="M1013.19,157.16c1.46-1.13,2.55-1.6,3.06-2.42,9.32-15.1,19.68-29.71,27.27-45.64,3-6.21-7.2-6.82-11.72-9.56-.8-.49-1.65-.9-2.47-1.35a11.74,11.74,0,0,1,3.09.14c14.81,4.76,15.58,7.16,5.9,24.2-6.78,11.94-13.65,23.92-21.76,34.94-3.06,4.15-8.49-1-12.32-2.68-10.14-4.5-19.91-9.85-29.82-14.87-2-1-2-2.33-1.34-4.51,3.65-12.92,10.58-16,21.86-8,2.7,1.9,5.92,3,8.9,4.54a103,103,0,0,1-9.93-3.29c-7-3.11-14-8.35-17.8,4.14-1.17,3.82-2.23,5.28,2.21,7.29C990.09,145.41,1001.55,151.41,1013.19,157.16Z"/><path class="cls-1" d="M259.58,39.26c2.05-6.81,7.72-10.39,13.23-13.74.67-.41,4.26,3.8,6.37,6,8,8.31,15.63,17,23.93,24.93,5.22,5,5.47,8,.36,14-11.63,13.8-16.24.19-22.14-5.07-8.17-7.3-15.15-15.93-22.66-24-1.39-1.49-.93-2.08.9-2.15,9.48,9.82,19.73,19,28.25,29.62,10.46,13,13-1.2,18.8-4.48a3.19,3.19,0,0,0-.57-2.2c-6.71-7.14-14.43-13.54-20-21.44C277.24,28.4,269.23,25.38,259.58,39.26Z"/><path class="cls-1" d="M890.26,102.51c-.23.41-.41.86-.49.84a6.44,6.44,0,0,1-1.69-.55C846.3,80,804.38,57.37,762.9,34c-5.94-3.35,1.29-8.29,2.6-12.36.92-2.84,3.3-5.21,5-7.79-1.27,2.77-2.13,5.84-3.88,8.27-11.16,15.5,5.69,15.4,11.7,18.82C814.2,61.3,850.66,80.6,886.91,100.28,888.06,100.91,889.1,101.73,890.26,102.51Z"/><path class="cls-1" d="M427.62,18.26c-12.19,23.25-24.41,46.49-36.41,69.84-9.09,17.68-18,35.48-26.86,53.27l.51-.5c1.67-2.71,3.13-5.52,5-8.07l30.75-59.66A8,8,0,0,1,401.9,69c1-1.47,2-2.91,3.09-4.33Q416.77,41.83,428.55,19C428.23,18.75,427.93,18.5,427.62,18.26Z"/><path class="cls-1" d="M397.14,51Q374.05,94.53,351,138.12a3.83,3.83,0,0,1,.19,1.82,4.75,4.75,0,0,1,.47-.15q23.49-44.68,47-89.38C398.13,50.61,397.64,50.79,397.14,51Z"/><path class="cls-1" d="M785.76,238.54l-.07,0h0Z"/><path class="cls-1" d="M792.48,261.84c-.32.23-.63.48-.94.75l1-.69Z"/><path class="cls-1" d="M761.3,273V270.8C759.84,271.69,760.48,272.05,761.3,273Z"/><path class="cls-1" d="M761.3,286.27v-1.93c-.73.45-1.47.93-2.13,1.43"/><path class="cls-1" d="M761.3,257.4v-2.06"/><path class="cls-1" d="M769.3,253.74c-2.5-6,4.79-5.89,7.24-8.82,2.29-2.74,6-4.28,9.14-6.33-1.37.25-3.05.08-4.05.83-6.87,5.16-13.22,11.24-20.33,15.92v2.06c1.93-1.22,3.88-2.4,5.81-3.6,1.54,2.85,5,6.74,4.2,8.35-1.78,3.42-5.48,6.39-9.07,8.15-.38.19-.69.35-.95.51V273a6.58,6.58,0,0,1,.43.55c1.56,2.24,3.62,4.95,3.45,7.3-.09,1.2-1.94,2.28-3.87,3.48v1.93a13,13,0,0,0,2.41-1.29c4.76-3.14,4.1-5.78,1.45-9.92-3.41-5.31,3.35-5.7,5.09-8.56,1.19-2,3.43-3.54,6-.76,7.09,7.61,10.82.68,15.26-3.15C780.37,270.31,773.7,264.36,769.3,253.74Z"/><path class="cls-1" d="M715.47,87.25c-11.75,24.28-30,41-53.54,51.39a6.27,6.27,0,0,1,1,.5,53.84,53.84,0,0,0,7.74-3.33,3.73,3.73,0,0,1,.44-.25c.67-.37,1.35-.74,2-1.15a4.09,4.09,0,0,1,2.08-.65,27.66,27.66,0,0,1,4.72-2.57,106.84,106.84,0,0,0,36.68-43.31c1.42-3,3-5.86,4.58-8.79C719.27,81.8,716.9,84.3,715.47,87.25Z"/><path class="cls-1" d="M312.18,141.94C291,121,269.75,100.11,249,78.72c-5.76-5.95-16.55-9.53-13.85-23-.82-1.92-2.2-5.24-3.66-8.53-.18-.41-.72-.68-1.14-1,0,0-.35.33-.54.5,6.77,5.62-.59,14.85,5.39,20.75q37.19,36.71,74.32,73.48C310.42,141.29,311.3,141.62,312.18,141.94Z"/><path class="cls-1" d="M511.91,538.38q-14.4-13.06-28.93-26h-2.11c.65.66,1.31,1.3,2,1.92,31.41,28.14,63.55,55.5,90.85,87.89a84.26,84.26,0,0,0,6.33,6.14c-1.77-2.43-3.44-4.94-5.34-7.27C555.91,578.05,533.84,558.28,511.91,538.38Z"/><path class="cls-1" d="M480.86,512.41H483"/><path class="cls-1" d="M419,512.41h1.71"/><path class="cls-1" d="M419,512.41q-32,41.13-64,82.28l.36.34c1.1-1.19,2.29-2.32,3.3-3.59q31-39.5,62-79Z"/><path class="cls-1" d="M500.6,561.74c-5.86,5.37-12.1,10.39-17.46,16.22-3.68,4,1.93,5.9,3.79,7.6,2.06,1.89,2.89,8.2,7.67,4.6,5.52-4.15,10.36-9.2,15.53-13.82a10.35,10.35,0,0,1,2-1.12,7,7,0,0,1-1,1.94q-18.85,18.52-37.79,37c-.34.33-1,.33-1.49.49a7.21,7.21,0,0,1,1-2c5.61-5.89,11.33-11.69,16.9-17.62,3.22-3.42-.72-5.8-2.34-6.34-3.86-1.27-3.23-11.06-9.94-5.67-5.87,4.71-11.84,9.72-16.18,15.73-2.68,3.71,4.1,5.31,5.51,8.65a42.59,42.59,0,0,0,3.37,5.55,57.61,57.61,0,0,0-4.22-4c-15.4-11.89.8-16.11,5.92-22.07,7.45-8.68,16.19-16.27,24.53-24.16.89-.84,2.78-.62,4.2-.9Z"/><path class="cls-1" d="M345,112.09c-1.34-1.49-2.61-2.92-3.91-4.33-6.84-7.42-13.62-14.9-20.59-22.21-2-2.08.1-2.54.93-3.52,8.16-9.57,16.33-17.67,25.47-.85a20.23,20.23,0,0,0,5.34,6.24c13,9.92,5.43,16.88-3.23,23.75a5.41,5.41,0,0,1-1.61.58c.13-.53.1-1.2.43-1.56,1.83-2,3.85-3.85,5.59-5.93,2.66-3.17,8.36-5.24,1.74-10.83-5.9-5-10.15-11.89-15.49-17.61-1.38-1.48-3.46-6.49-5.55-2.93-3,5-15.88,5.15-9,14.89,5.63,7.92,13,14.62,19.55,21.88a8.72,8.72,0,0,1,1.1,1.73A5.67,5.67,0,0,1,345,112.09Z"/><path class="cls-1" d="M804,378.36l-.29,1.5a17.3,17.3,0,0,1-1-4.05c-.08-6.44-2-8.83-9.05-6.32-7.83,2.8-16.16,4.19-24.27,6.22-1.36.34-3.92.48-2.4,2.58,2.46,3.39-.66,11.16,5.67,10.54,9.25-.9,18.26-4.13,27.4-6.26a16.42,16.42,0,0,1,4,.06,14.9,14.9,0,0,1-3.41,1.91c-9.18,2.3-18.41,4.42-27.59,6.73-3.09.78-5.93-1-5.25-3.16,1.48-4.71-8.47-9.89,0-13.28,8.27-3.31,17.42-4.33,25.85-7.32S804.51,367.74,804,378.36Z"/><path class="cls-1" d="M213.47,212.57l-21.56,20.65a12.91,12.91,0,0,0-1.49,2.16,13.74,13.74,0,0,0,2.35-1.47l21.71-20.58Q214,213,213.47,212.57Z"/><path class="cls-1" d="M761.3,405.64v-4.16m0,17.52v-2.71"/><path class="cls-1" d="M768.47,396.09c-5.11-3.58-5,1.83-6.06,3.77a9,9,0,0,1-1.1,1.62v4.16c1.51-3,3.12-6,4.79-9.17,3.27,2.49,8.14,5.4,7.84,6.11a80.06,80.06,0,0,1-9,15.4c-.11.15-1.87-.71-3.66-1.69V419c3.72,1.65,7.31,2.25,9.36-4.94a22.72,22.72,0,0,1,3.62-6.69C779.83,399.64,772.47,398.89,768.47,396.09Z"/><path class="cls-1" d="M1071.61,287.48c-3.34,2.38-5.94,4.58-8.84,6.23-5.11,2.9-6-3.16-8.3-5-5.41-4.24-9.7-9.94-14.22-15.24-1.08-1.27-2.13-4.49-1.71-4.79,3.29-2.42,9.3-6.84,10.12-6.06C1056.61,270.19,1063.7,278.64,1071.61,287.48Zm-11.54,3.6c4-.55,8-1.59,7.69-4-.29-2.62-3.44-5.1-5.74-7.2-.57-.52-2.8.4-4.05,1.07a28.84,28.84,0,0,0-3.95,3c1.23-1.49,2.38-3,3.71-4.44,1-1.06,3-1.92,1-3.48-1.53-1.17-2.07-4.89-4.92-3-2.47,1.63-4.32,4.19-6.45,6.34Zm-3.93-21.42c-3.53-2.54-6.12-5.87-8.3-5.62-2.78.31-5.23,3.52-7.82,5.49,2.13,2.45,4,6.55,6.45,6.86S1051.58,273,1056.14,269.65Z"/><path class="cls-1" d="M275.65,139.61l.23.4a18.84,18.84,0,0,0,4.68-5.23A55.11,55.11,0,0,0,275.65,139.61Z"/><path class="cls-1" d="M282.3,124.78c-16.73-15.81-33.56-31.52-50-47.61-10.45-10.22-27.54-8.72-35.4,3.67l.27.27c6.21-4.37,9-12.62,21-8.37,8.82,3.13,15,7.61,21.11,13.45,10.27,9.79,20,20.24,30.72,29.45,7.39,6.32,14.57,12,10.59,19.15a19.72,19.72,0,0,1,2.21-1.61C288.64,129.55,285.21,127.53,282.3,124.78Z"/><path class="cls-1" d="M981.23,47.32c-13.91-7.23-28-14.18-41.72-21.74-9.07-5-18.09-10.07-27.1-15.17,0,.07,0,.15,0,.23a12.38,12.38,0,0,1,1.28.92c1.12.92,2.2,1.81,3.3,2.64q.3.21.59.44A28,28,0,0,0,921.29,17a53.58,53.58,0,0,1,8.39,5.17c16.82,9.29,34,17.9,51.3,26.34a11.57,11.57,0,0,0,2,.57l.06-.62C982.43,48.07,981.86,47.64,981.23,47.32Z"/><path class="cls-1" d="M817.33,476.4c-11.23-.81-20.81-.21-29.54-2.66-4.77-1.34-.69-9.42-3.18-13.91,1.4-.39,2.82-1.16,4.21-1.11,9.46.34,18.92.84,28.38,1.36a9.21,9.21,0,0,1,2.48.89c-1.4.29-2.86,1-4.19.8-7.5-1.12-7.43,4.49-7.24,8.89.23,5.44,5.35,4.54,8.29,3.65,4.76-1.44,1.75-7,3.95-10.18a21.89,21.89,0,0,0,1.44-2.82c0,1.1.42,2.76-.12,3.19C818,467.54,826.29,477.28,817.33,476.4Zm-24.52-3.74c9,.64,3.66-7,4-10,.5-3.81-4.79-1.83-7.47-2.64-1-.3-3.92-.53-2.79,1.56C788.55,465.18,783.14,472.78,792.81,472.65Zm6.15-5.33c.49,2.19-2,6,3.33,6.15,9,.18,1.65-8.25,5.71-10.6-.68-.47-1.33-1.3-2-1.35C802,461.24,797.17,460.06,799,467.32Z"/><path class="cls-1" d="M813.37,388.74c9.46-.66,14.52-1.05,19.59-1.33.63,0,1.3.51,1.95.78-.66.39-1.3,1.1-2,1.13-8.65.39-17.31.72-26,.88-.44,0-1.23-1.66-1.29-2.58-.08-1.4.53-2.83.51-4.24-.08-5.38-.29-10.76-.46-16.14,9.75,0,19.51-.21,29.25.09,2.58.08,2.54,3.12,2.24,5-.7,4.38-1.84,8.68-2.81,13-.3-.39-.92-.88-.84-1.15,7.52-23.31-11.1-13.1-19.77-15-1.87-.41-8.32-1.32-7,1.06C810.11,376.34,800.17,391.27,813.37,388.74Z"/><path class="cls-1" d="M826.82,141.7c11-.59,19.87,5.91,29.86,8.7,23.65,6.62,47.21,13.58,70.79,20.44a9.43,9.43,0,0,1,2.12,1.3c-.83.15-1.75.62-2.46.4q-49.76-14.94-99.48-30c-.33-.1-.55-.57-.82-.86Z"/><path class="cls-1" d="M958.13,234.77c4,1.83,8.37,3.77,12.67,5.77a13.85,13.85,0,0,1,2.09,1.47,7.24,7.24,0,0,1-2.66.24c-6.59-2.07-13.27-4-19.66-6.58-2.19-.89-7.58-.35-5.94-4.17,1.76-4.1,1-13.3,10.83-8.8,4.58,2.11,9.6,4,14.55,4.42,12.5,1.13,12.16,7,6.63,15.47-.26.4-.88.58-1.33.86a18,18,0,0,0,.28-2c.14-4.29,8.71-10.87-3.21-11.9-.1,0-.27-.07-.29,0-3.52,4.81-3.84,1.77-7-1.24C959.57,222.95,959.27,229.56,958.13,234.77ZM957,230.85c2.16-7.57-3.69-5.85-6.15-7.68-1.59,2.52-4.69,5.21-4.43,7.52.44,3.91,5.29,3.25,8.18,3.83C958.3,235.27,956.78,231.38,957,230.85Z"/><path class="cls-1" d="M963.78,160.4c5.76,4.65,20.67,1.41,11.7,16.27-1.85,3.06,1.4,3.25,2.82,3.68,4.9,1.49,4.81,4.08,3.56,8.55-1.94,7-4.93,7.92-11,4.64-5.54-3-11.91-4.44-17.32-7.6-5.17-3,.35-6,1.59-8.26C958.05,172.23,958,165.09,963.78,160.4Zm13.2,8.13c-.15-.34-.22-.94-.46-1-4.32-1.45-11.68-5-12.48-3.87-4.26,6-7,13.08-9.79,20-.13.32,3.74,2.53,5.91,3.5q6.7,3,13.6,5.53c1.43.53,4,3.44,4.44,0s7.06-7.67-.22-10.22c-5.27-1.85-6.42-3.89-3.24-8.49C975.82,172.41,976.24,170.41,977,168.53Z"/><path class="cls-1" d="M808.68,404.33c8.75.59,17.5,1.19,26.25,1.75,3.77.24,2.71,3.19,2.9,5.28.1,1.09-.57,2.26-.89,3.39-.35-1.57-.8-3.12-1-4.71-.32-2.34-2.06-2.2-3.68-2.25-10.8-.38-21.6-.72-32.4-1.1-2-.07-4,0-3.61,2.71.37,2.5-1.88,6.63,3.19,6.72,11,.18,22,.12,33,.21a8.6,8.6,0,0,1,2.4.76,6.92,6.92,0,0,1-2.31.92c-11.92,0-23.83-.11-35.75-.33a3.89,3.89,0,0,1-2.24-1.81c1.74-3.52-3.19-9.59,3.74-10.93,3.34-.65,6.91-.11,10.37-.11Z"/><path class="cls-1" d="M309.67,120.57c5.33-5.51,10.66-10.46,14.94-16.2.52-.7-4.61-5.62-7.13-8.58-1.76-2.06-3.53-4.11-5.29-6.16a58.64,58.64,0,0,1,6,5c3.09,3.27,8.91,9.1,8.33,9.86-4.75,6.26-10.1,12.72-16.76,16.43-1.64.91-9-7.83-13.28-12.54-2.14-2.36,1.27-3.52,2.4-5.07a15.24,15.24,0,0,1,2.24-2.07l10-9.06c-3,3.58-5.9,7.27-9.08,10.69-2.31,2.5-5.2,4.28-1.14,7.95s5.12-.59,7-2.06c3.77-2.89,7.25-6.16,10.86-9.27q-5.09,5.56-10.18,11.13c-1.29,1.42-3.78,3.19-3.52,4.28C305.59,116.78,307.74,118.29,309.67,120.57Z"/><path class="cls-1" d="M911.37,84.84c16,8.28,32,16.24,47.7,24.88,5.08,2.8,7.11,1.29,9.15-3.09,4.33-9.34,8.8-18.62,13.24-27.91a9,9,0,0,1,1.25-1.58,6.84,6.84,0,0,1-.27,2c-4.21,9.05-8.32,18.15-12.74,27.1-4.54,9.21-9.37,18.28-14.09,27.4a20,20,0,0,1-1.34,2,13,13,0,0,1,.59-2.16c9.26-20,9.29-20-16.23-33.24-8.14-4.22-16.51-8-24.71-12.07-1.27-.63-2.18-2-3.25-3Z"/><path class="cls-1" d="M419.87,564.19c.81,1.52,1.55,3.08,2.27,4.66a32.08,32.08,0,0,0,5.85,5.73c.86.68,1.83,1.23,2.74,1.84a13.45,13.45,0,0,0-1.51-2.83c-6.15-6.91-12.67-11.08-1.12-21.76,13-12,19.21-11.45,26.34,3.36.19.4.68.67,1,1l.64-1.2c-1.91-2.55-3.51-5.37-5.75-7.53-5.74-5.51-6.5-8.84.2-15.79,10.56-11,16.78-10.31,22.89,2.92a4.56,4.56,0,0,0,1.23,1.27,3.34,3.34,0,0,0,.56-.46c-3.65-4.86-7-10-11.13-14.41-2.12-2.28-4.32.73-5.86,2.13-9.72,8.82-18.45,19-29.11,26.45-7.37,5.15-10.36,9.8-9.33,14.54Z"/><path class="cls-1" d="M1027.12,246.28c-.31,1.9-.24,2.92-.64,3.68-1.13,2.13-2.46,4.15-3.71,6.21a58.52,58.52,0,0,0,1.77-6.1c.27-1.46,2.52-4-.81-4.23-2.94-.17-6.15-5-8.43-.69-1,1.81-4.64,7,2,8.33a10,10,0,0,1,2.57,1.38c-1.28.3-2.69,1.11-3.81.81-7.9-2.13-16.32-3.4-23.36-7.21-4-2.16,1.36-8,.9-12.29,0-.32.49-.7.75-1.06a30,30,0,0,1,.4,3.9c0,1-.57,2-.61,3-.06,1.71-.31,4.77.21,4.93,5.83,1.75,11.79,3,17.72,4.46.52-2.43,1.55-4.88,1.42-7.28-.16-3.1-3.69-2.17-5.47-3.46-.73,1.64-1.47,3.28-2.2,4.92-.43,1-.84,2-1.26,3-.08-1.11-.16-2.22-.22-3.33-.13-2.09,2.25-4.66-1.06-6.14-2-.88-4-1.59-6-2.37a47.18,47.18,0,0,1,6.93.91q10.59,3,21,6.39C1026.16,244.32,1026.75,245.82,1027.12,246.28Z"/><path class="cls-1" d="M658.15,235.45a51.65,51.65,0,0,0-3.07-5.35c.57,2,1,4.13,1.73,6.11,1.76,4.73,4.81,9.57,6,14.21h1.54C662.24,245.19,660.23,240.3,658.15,235.45Z"/><path class="cls-1" d="M652.2,231.1c.5-.12.86-.79,1.28-1.21-.29-.21-.7-.65-.84-.58-5.79,2.94-11.71,5.69-17.1,9.25-.63.41,1.65,5.37,2.71,8.16.47,1.22.92,2.46,1.37,3.69h1.1C636.44,241.38,638.43,234.4,652.2,231.1Z"/><path class="cls-1" d="M664.39,250.41h-1.54"/><path class="cls-1" d="M640.73,250.41h-1.1"/><path class="cls-1" d="M802.42,236.4c5.37.87,10.11,1.51,14.8,2.43,8.23,1.6,3.89,7.63,3.32,11.51-.62,4.17-3.19-.5-5.09,0-2.95.82-9.64-5.08-7.59,4.79.17.83-10.21.93-10.83-1.36-1.3-4.76.37-10.42,1.34-15.62C798.53,237.29,801.26,236.87,802.42,236.4Zm.49,2.32c-6.63,1.63-3.84,8.13-5.15,12.05-1,3.11,3.79,2.59,5.12,2.24,6.09-1.64,3.87-7.72,5.06-11.8C808.83,238.12,804.94,240,802.91,238.72ZM813,240c-4.35-.3-3.65,3.14-3.52,4.9.35,5,5.09,3.1,7.66,3.58,3.57.66,2.76-3.68,2.58-5.19C819.29,239.17,815,241.3,813,240Z"/><path class="cls-1" d="M1056.15,372.22c-32.89-3-66.27-6.06-99.65-9.15a11.19,11.19,0,0,1-2.5-.85A17.75,17.75,0,0,1,957,362q50.1,4,100.19,8c1.78.14,3.55.5,5.32.75Z"/><path class="cls-1" d="M701.4,66.61A98,98,0,0,1,688,55.07c-.56.18-1.13.35-1.72.48,7.95,8.61,16.92,16,29,19.73a34.52,34.52,0,0,0,5.24.79c-1.59-.72-3.2-1.4-4.77-2.18C710.94,71.52,705.74,69.68,701.4,66.61Z"/><path class="cls-1" d="M844.44,392c5.62-7.59-5.26-12.07-3.77-19.41.43-2.12.26-4.61,3.11-4,4.9,1.12,12.89-3.58,14.29,2.82,1.93,8.81,1.18,18.52-.08,27.61-.78,5.63-8.31,4.7-11.35,3.86C842.11,401.7,846.7,396,844.44,392Zm13.16-6.67c-.21-4.49-.31-8.16-.62-11.82-.09-1.08-.8-3-1.22-3a87.34,87.34,0,0,0-13,.89c-.45.07-1.12,3.93-.37,5.33,1.24,2.32,6.12,1.48,4.83,6.67-1.15,4.64-.45,9.73-.7,14.61-.14,2.82.45,3.39,3.62,3C862.45,399.57,854.37,389.69,857.61,385.34Z"/><path class="cls-1" d="M915.83,271.62c15.42-4.15,12.75,10,11.27,17.23-.93,4.57-11.63,2.23-17.87,3.48-2.71.54-3-1.39-3.1-3.35,0-.2-.09-.4-.09-.61q.06-6.73.13-13.46c.37,4.18.85,8.36,1.06,12.55.14,2.83,2,3,3.81,2.47,1.5-.4,4.68,1,3.86-2.89-1.11-5.26,3.91-13.68-7.42-13.56-1.59,0-.3-1.87,3-1.89.61,0,1.23,0,1.84,0Zm3.11,17.49c12-.4,6-8.37,6.26-12.61.4-6.06-6.2-2.68-7.34-2.28-4.52,1.56-.71,5.72-1.11,8.78C916.47,285,915.23,289.16,918.94,289.11Z"/><path class="cls-1" d="M1018.6,488.42c-8.25-3.77-18.35.89-24.8-8.46-2.58-3.74-3-6.17-1.16-9.55s4.52-.83,6.78-.48c4,.62,8.07,2.51,11.9,2.06,12.69-1.5,11,6.38,9.78,14.07C1021,487,1019.45,487.66,1018.6,488.42Zm-7.1-14.7c-8.84-1.33-9.07,6.37-7.88,8.91,2.47,5.29,9.6,1.21,14.11,3.82,1-3.38,3.53-7.15,2.75-10C1019.2,471.7,1013.81,474.93,1011.5,473.72Zm-14-2.65c-4.2.13-5.08,3.39-4.52,4.27,2,3,4.77,5.54,7.26,8.25,1-3,3-6.07,2.71-8.9C1002.77,473.08,998.81,471.89,997.49,471.08Z"/><path class="cls-1" d="M849.53,460.58c7.38-2.83,14.89-.12,22.35-.39,6.57-.24,13.19,1.48,19.8,1.66,14.55.39,6.44,10.21,7,16.39,0,.24-.51.54-.78.81a6.81,6.81,0,0,0-.29-1.87c-2-4.3,6-11.09-3.77-13.62-9.1-2.35-11.93,1.06-10.78,9.7.19,1.47-.64,3.07-1,4.61a35.2,35.2,0,0,0-.64-4.59c-1.12-4.11,4.09-10.51-5.42-11.56-11.86-1.31-5.53,7.92-7.91,12a11.88,11.88,0,0,0-.72,1.92c-.24-.36-.77-.81-.69-1.08,4.92-17.78-8.95-12.47-17.21-14Z"/><path class="cls-1" d="M756.41,15.47c-1.09,2.08-2.22,4.15-3.46,6.14-1.69,2.72-1.91,7.72-7.6,5.45-1-.38-1.9-.77-2.84-1.16a15.83,15.83,0,0,1-2.26,1c7,3,13.42,3.72,16.23-9.24a11.88,11.88,0,0,1,.74-2.22Z"/><path class="cls-1" d="M214.89,35.54c-3.42-.27-6.9,1.89-10.23-1.74-4.8-5.24-9.69-10.41-14.6-15.55q-1.16-.1-2.33-.29c5,5.33,10,10.72,14.7,16.33,5.91,7,14.29.06,19.89,5.36l.7-.83C220.75,36.21,217.93,35.78,214.89,35.54Z"/><path class="cls-1" d="M224.17,125.59c-.32-.22-.76-.44-.74-.51a3.3,3.3,0,0,1,.62-1.28c1.33-1.41,2.63-2.86,4.08-4.14,15.47-13.65,15.45-13.61.75-27.9-3.27-3.18-6.31-6.62-9.37-10A43,43,0,0,1,216.76,78,24.48,24.48,0,0,1,221,80.84c7.41,7.5,14.63,15.19,22.1,22.63,1.66,1.65,1.44,2.32-.08,3.78-5.81,5.58-11.46,11.32-17.19,17C225.35,124.72,224.76,125.12,224.17,125.59Z"/><path class="cls-1" d="M665.84,550c-5,4.43-9.76,9.26-15.14,13.22-14.28,10.49-28.83,20.61-43.31,30.84a9.26,9.26,0,0,1-2.46.84,9.32,9.32,0,0,1,1.53-1.91c19.39-14.2,39.84-27,57.54-43.43a3.43,3.43,0,0,1,1.33-.58A7.78,7.78,0,0,1,665.84,550Z"/><path class="cls-1" d="M689.59,249.06c-4.56-1.78-12.94,3.59-11.32-7.08.18-1.17.48-2.32.72-3.47.31,1.21.61,2.42.95,3.62,2.59,9.33,10,2.72,14.9,4.19,2.6.77,8.58.63,6.63-4.66-2.09-5.68-8.36-1.6-12.61-2.82-2.47-.71-5.28-.24-7.94-.3,2.54-.51,5.31-1.92,7.57-1.34,5.45,1.4,16.38-5.58,14.76,7.37C702.2,252.88,693.77,246.68,689.59,249.06Z"/><path class="cls-1" d="M717.18,235.39c-1.87-2.68-4.47.86-6.83,1.09-.45,0-.82.77-1.23,1.18.41.17.88.57,1.21.47,11.79-3.41,9.2,7.26,14,12.27h1.8A87.53,87.53,0,0,0,717.18,235.39Z"/><path class="cls-1" d="M712.59,249c4-2.59.95-5.34-.2-7.94-.28-.62-1.09-1-1.65-1.51.57,1.7,1.22,3.38,1.66,5.12.17.67.07,1.9-.33,2.13-2.16,1.24-3.3,2.45-3.77,3.64H711A6.18,6.18,0,0,1,712.59,249Z"/><path class="cls-1" d="M726.11,250.41h-1.8"/><path class="cls-1" d="M711,250.41h-2.66"/><path class="cls-1" d="M372.88,68.8c-6,6.25-10.48,10.91-15,15.55-.08.09-.52-.17-.79-.26.28-.59.39-1.47.85-1.74,17-9.82,7.43-18-1.57-26.22-1.42-1.3-2.19-.84-3.61,0-12.79,8-10,15.79.2,23.61.61.47.71,1.61,1,2.44a22.13,22.13,0,0,1-2.2-1.41c-.46-.37-.68-1.08-1.16-1.41C334.85,68.87,344,61.07,353.5,53.32c.36-.3,1.13-.71,1.27-.58C360.9,58.11,367,63.53,372.88,68.8Z"/><path class="cls-1" d="M300.53,512.41a261.63,261.63,0,0,1-22.11,30.44c-.25.29-.18.86-.26,1.3.68-.31,1.61-.43,2-1,5.29-6.83,11.23-13.28,15.6-20.67,2-3.43,4.21-6.77,6.41-10.11Z"/><path class="cls-1" d="M300.53,512.41h1.65"/><path class="cls-1" d="M838.68,430.47c1.33,6.95-3.77,8.28-8.27,8-4.28-.27-11,4.48-12.69-3.9-2.13-10.46,4.87-11,12.33-10.87C834.75,423.77,840,423.07,838.68,430.47ZM837,432.64c-.15-3.87.76-7.27-2.54-6.44-5.5,1.38-15.6-5.66-15.25,7.63.05,2.1,1,3.13,2.66,2.68C827.1,435.14,834,438,837,432.64Z"/><path class="cls-1" d="M529.41,512.41h3.4"/><path class="cls-1" d="M541.36,515.81c-3.87-2-3.79,2.49-5.74,3.72a7.37,7.37,0,0,0-1.58,1.86c-1.09,1.42-2.39,3.24-4.08,1.14-4.08-5.07-.06-7.38,2.83-10.12h-3.4a11.68,11.68,0,0,0-1.26,2.3c-.93,2.29-4.11,5.58-3.6,6.19a22.88,22.88,0,0,0,8,5.71c.44.2,2.45-3.66,4.11-5.25,1.3-1.25,1-4.37,4.08-3.65.94.22,1.88.46,2.82.7C542.84,517.53,542.3,516.29,541.36,515.81Z"/><path class="cls-1" d="M885.27,72.06c-12.24-6.61-25.13-13.59-38-20.53-4.4-2.36-8.66-5.47-13.38-6.67-5.64-1.43-5.27,5.25-7.91,8-2.12,2.19-3.19,5.39-4.78,8.1-.18.32-.7.44-1.06.65a5.39,5.39,0,0,1,.21-2.05c3.11-5.49,6.24-11,9.57-16.34.36-.58,2.29-.82,3.07-.42q26.79,13.85,53.47,27.93a6,6,0,0,1,1.22,1.2Z"/><path class="cls-1" d="M661.16,62.37c-6.05,6.9-1.75,9.51,4.77,11.7,3.27,1.1,4.68.31,5.67-2.67a37.11,37.11,0,0,1,2.14-4.46c-.2,1.81.05,3.82-.66,5.39-3.52,7.72,4.12,5.53,6.68,7.06,3.64,2.17,2.88-2.13,3.74-3.9l2.08-4.26c-.18,1.37,0,2.88-.58,4.09-3.32,7.49,2.57,8.37,7.17,10.25a8,8,0,0,1,1.72,1.35c-.81.08-1.75.47-2.4.19Q674,79.77,656.62,72.21a2.1,2.1,0,0,1-.59-1.95c1.36-3.19,2.89-6.31,4.37-9.45Z"/><path class="cls-1" d="M301.12,76.37c2.15,2.53,4.13,4.53,5.71,6.81,1.74,2.51-.48,4.26-1.88,5.81a72.32,72.32,0,0,1-8.29,8c-2.16,1.72-3.59,6.62-6.79,4.47-5.09-3.4-8.84-7.77-.71-13.08C293.64,85.51,296.91,80.72,301.12,76.37Zm-10,24.39c5.13-5.68,10-11,14.52-16.48a40.79,40.79,0,0,0-4.24-4.21A181.32,181.32,0,0,0,287,94.64C286.62,95.09,289.44,98.31,291.12,100.76Z"/><path class="cls-1" d="M845.24,438.51c0-8.28-1.1-16.77.42-24.77.76-4,6.93-.25,10.6-1,.61-.12,2.4,2,2.43,3.18.19,7.23.11,14.46-.09,21.69a3.2,3.2,0,0,1-2.13,2.23c-3.83.5-7.9,2.12-11.26-1.38,4.08-1.09,10.74,2.56,12-1.8,1.79-6.27,1.13-13.63-.09-20.23-.79-4.27-6.14-.63-9.12-2.13a3.47,3.47,0,0,0-1.65,2C845.87,423.68,845.58,431.1,845.24,438.51Z"/><path class="cls-1" d="M420.81,102.64,401.61,117c-1.82-2.57-3.67-5.1-5.41-7.72a6.9,6.9,0,0,1-.55-2.24,8.56,8.56,0,0,1,1.82,1.27c1.67,2,4.52,5.89,4.67,5.78,5.58-3.84,12.11-7.25,15.64-12.61,1.27-1.93-4.51-8.83-7.74-12.94-.35-.44-5.17,2.53-7.82,4.09-.4.24-.53,1.43-.36,2.06a41.07,41.07,0,0,0,1.59,4.19c-.47-.34-1.1-.59-1.38-1-1.19-2-3.21-3.87-.84-6.5,8.4-9.37,12.31-3.11,16,4.45C418.23,98,419.45,100.1,420.81,102.64Z"/><path class="cls-1" d="M949.46,136.26c-.18.24-.37.66-.48.64a5.49,5.49,0,0,1-1.71-.52Q920,121,892.78,105.48c-.53-.3-.82-1-1.22-1.53.46,0,1-.16,1.36,0q27.92,15.77,55.81,31.61A5,5,0,0,1,949.46,136.26Z"/><path class="cls-1" d="M212,138.27c-5.67,5.52-12,11.65-18.29,17.75-.1.1-.6-.23-.92-.35a9.5,9.5,0,0,1,1.22-2c4.63-4.6,9.17-9.31,14-13.67,3.05-2.74,2.1-4.51-.34-6.93-6.74-6.67-13.28-13.55-19.87-20.37a5.78,5.78,0,0,1-.75-1.43c.28,0,.71-.1.83,0,7.25,8.78,18.27,13.89,23.76,24.37A13.67,13.67,0,0,1,212,138.27Z"/><path class="cls-1" d="M798.94,426c-7.25-1.81-7.73,2.71-7,7.79.81,5.49,4.85,1.55,7.32,2.06,2.67.56,5.5.35,8.26.48-2.55.51-5.13.93-7.66,1.56-6.45,1.6-11.31,1.35-9.83-7.51.4-2.4-.14-5.46,3-5.92,5.49-.8,11.74-2.46,16.22,1,2,1.51.64,7.27.77,11.11,0,.21-.38.43-.58.65a7.11,7.11,0,0,1-.83-2.42C809,427.88,806.56,424,798.94,426Z"/><path class="cls-1" d="M779.28,336.18c-3.65,1.63-9.15-1.44-9.79,3.11-1.33,9.41,6.52,6.95,11.76,7.56,1.61.19,3.2.55,4.8.83-1.45.21-2.89.49-4.34.62-8.25.74-15.43.09-15.44-11,0-2.19,1.2-1.82,2.24-1.83,5.38-.09,10.78.12,16.15-.14,4.19-.2,7.48-.23,5.12,5.52-.62,1.51-.59,3.3-.86,5-.25-1.84-.55-3.68-.74-5.52C787.4,332.83,781.16,339.83,779.28,336.18Z"/><path class="cls-1" d="M215.13,79.48l-.12,0a4.69,4.69,0,0,1-.59,1.61c-1.78,2-3.36,4.3-5.53,5.69-13.21,8.45-9.34,15.8.94,23.39,3.72,2.75,6.69,6.53,9.93,9.91a12.86,12.86,0,0,1,1.51,2.52c-1-.42-2.34-.57-3.06-1.3-6-6.07-11.72-12.51-18-18.31-4.08-3.77-4.31-6.32.12-9.9C205.37,89,209.93,84.3,215.13,79.48Z"/><path class="cls-1" d="M199.7,43.18Q183.48,26.43,167.23,9.71q-.07.8-.21,1.6,15.54,16.22,31.1,32.42a4.06,4.06,0,0,0,1.53.85c.19.07.51-.21.73-.31A7.67,7.67,0,0,0,199.7,43.18Z"/><path class="cls-1" d="M243.11,66.23c-.17-.47-.41-.8-.33-1a4.66,4.66,0,0,1,.91-1.53c3.77-3.74,7.53-7.48,11.37-11.15,2.24-2.14,4.36-2.58,6.63.27,2,2.46,4.38,4.56,6.55,6.86,3.58,3.79,10.76,10,10.09,11-4.09,6.18-10,11.18-15.26,16.55-.26.27-.85.21-1.29.3a5.94,5.94,0,0,1,.72-1.52c14.15-15.84,14.49-16.19-1-30.73-8.43-7.93-8.86,5.43-14.17,6.73C245.86,62.4,244.78,64.5,243.11,66.23Z"/><path class="cls-1" d="M565.44,623.88l13.85-9.93a4.7,4.7,0,0,0,.86-1.19,4.26,4.26,0,0,0-1.54.35l-13.7,9.79A10.71,10.71,0,0,1,565.44,623.88Z"/><path class="cls-1" d="M996.92,75.47c-6.13,12-12.52,24.47-18.94,37q-6.72,13.08-13.51,26.11c-.36.69-1.16,1.16-1.76,1.73a11.38,11.38,0,0,1,.62-2.2q16.14-31.66,32.34-63.3c.19-.38.65-.62,1-.92Z"/><path class="cls-1" d="M930.16,355.8q1.78-27.92,3.6-55.84a8,8,0,0,1,1-2.35,8.43,8.43,0,0,1,.6,2.47q-2.09,29-4.3,57.9c-.11,1.4-.58,2.67-1.35.23a6.52,6.52,0,0,1,.21-2.42Z"/><path class="cls-1" d="M236,26.61q-5.11,5.15-10.23,10.29c-.37.38-.37,1.13-.54,1.7a8.48,8.48,0,0,0,2-1.14Q232.62,32,238,26.55A15.51,15.51,0,0,1,236,26.61Z"/><path class="cls-1" d="M664.91,59.45c11.67,4.53,23.17,9,34.62,13.51.77.31,1.16,1.58,1.73,2.41-5.18,2.59-1.6,9.06-5.42,12.25-.22-.44-.74-1-.61-1.28,6.84-13.2-3.63-14.69-11.91-17.8-6.28-2.36-12.46-5-18.67-7.54-.48-.2-.83-.72-1.24-1.09Z"/><path class="cls-1" d="M891.88,429.51c-.77,4.47,2,12.12-7.83,12-3.17,0-5.36-2.27-4.33-4.92,2.3-5.92-4.1-15.32,3.66-17.62C891.51,416.54,892.08,418.46,891.88,429.51Zm-2.37-.29c2.72-8.5-1.73-10.1-5.41-8.33-6.23,3-1,9.9-3.1,14.75a2.65,2.65,0,0,0,2.72,3.76C893.69,439.41,888.24,431.07,889.5,429.23Z"/><path class="cls-1" d="M275,0q-20.93,20.87-41.81,41.79a5.29,5.29,0,0,0-.74,1.75,9.58,9.58,0,0,0,2.2-1.26Q254,22.94,273.3,3.53c.75-.76,1.48-1.54,2.21-2.32C275.33.82,275.16.41,275,0Z"/><path class="cls-1" d="M478.12,538a39,39,0,0,1-3.11,3.64q-20.07,18.56-40.24,37a7.62,7.62,0,0,1-2.53,1,7.73,7.73,0,0,1,1.21-2.41Q454.55,558,475.74,539c.65-.59,1.36-1.12,2-1.67Z"/><path class="cls-1" d="M939,39.06l2.52,1.72q9.32,5.19,18.66,10.35l1,.42a17,17,0,0,1,4.72,2.74l5.87,3.24c5.28,2.9,10.63,5.68,15.95,8.51l-15.25-10c-.6-.39-1.2-.78-1.82-1.12l-36-19.42A52.21,52.21,0,0,0,939,39.06Z"/><path class="cls-1" d="M1144.19,324.58c-2.67-2.74-2.48-4,0-6.47,3.38-3.39,6.65-6.87,9.87-10.33a8.78,8.78,0,0,1-.85-1.47c-2,2.07-4,4.18-5.85,6.44-2.57,3.19-8.89,6.44-6.79,9.82,4.59,7.39,11.37,13.43,17.29,20,.32.36,1,.4,1.5.6a5.43,5.43,0,0,0-.59-1.31C1153.93,336,1149.43,329.95,1144.19,324.58Z"/><path class="cls-1" d="M1000.65,72.24c18.46,8.07,35.7,15.61,52.94,23.18.24.1.32.57.47.87a6.52,6.52,0,0,1-1.15-.14c-17.39-5.36-33.5-13.63-49.54-22-.8-.42-1.32-1.36-2-2.05Z"/><path class="cls-1" d="M891.83,482.8c-14.16-1.75-27.51-3.38-40.85-5.07-.57-.07-1.08-.65-1.61-1a5.46,5.46,0,0,1,1.86-.53q22,2.17,44.06,4.46c.45,0,.84.58,1.26.88Z"/><path class="cls-1" d="M866.19,253.58c3.37,2.23,9.73-.42,10.34,5.68.29,2.9.17,8.27-4.09,8.49s-10.58.48-11.59-5.45C860.43,259.84,861,254.58,866.19,253.58Zm5.29,12.33a5,5,0,0,0,3.22-6.08c-1.2-3.95-5.62-3.42-8.72-3.69-3.3-.28-3.62,3.71-3.19,5.5C863.81,265.9,868.38,264.51,871.48,265.9Z"/><path class="cls-1" d="M1051.84,86c-12.67-6.6-26.57-13.83-40.47-21.08-2.12-1.11-4.19-2.33-6.29-3.49,2.77,1,5.65,1.83,8.29,3.12,13.45,6.58,26.83,13.29,40.23,20,.51.25,1,.57,1.46.86Z"/><path class="cls-1" d="M690.75,230.47l9.68,1.79c-.91.3-2,1.06-2.71.82-4.9-1.53-12.63,5.06-14.53-4.65-.57-2.92,1.44-6.05,5.12-5.14,4.91,1.22,11.78-2.84,14.38,4.91.27.8-.3,1.88-.48,2.83a8.54,8.54,0,0,1-1-2.47c-.15-2-1.15-2.93-3.12-2.94-4.32,0-10.79-2.78-12.5.76C681.79,234.17,689.85,229.79,690.75,230.47Z"/><path class="cls-1" d="M806.84,344.28c-3.46-.52-9.14,2.1-10-4.08-.77-5.6,3.9-7,8.19-6.15,2.94.6,7.92-2.5,8.6,2.15C814.15,339.59,815.79,346.88,806.84,344.28Zm-2.39-1.91c3.69-.25,8.81,1.79,7.37-3.9-1.24-4.89-6.52-2-9.91-2.82-2.57-.59-4.18,1.77-3.71,4C799,343.73,802.77,341.8,804.45,342.36Z"/><path class="cls-1" d="M167.54,95.65c9.83-10.71,19.61-21.47,29.52-32.11,4.45-4.78-3.91-8.93-.44-13.58a36.22,36.22,0,0,0,1.89-3.11c.07,1.16.11,2.32.23,3.48,2.31,23.83-21,30.1-31.12,45.39Z"/><path class="cls-1" d="M938.28,202.88a268.72,268.72,0,0,0-14.36,43.66c-.62,2.72-1.4,5.4-2.11,8.1.33-3.05.44-6.15,1-9.15,2.82-14.36,8-28,13.65-41.41a14.17,14.17,0,0,1,1.25-2Z"/><path class="cls-1" d="M184.3,94.63Q162,117.74,139.74,140.83a4.92,4.92,0,0,1-1.44.72c.11-.36.11-.83.35-1.07Q161.29,117.37,184,94.3Z"/><path class="cls-1" d="M732.21,250.41h-.27"/><path class="cls-1" d="M730.87,245.07c-.42-2.37-4.49-4.71-.78-7,2-1.25,4.27-5.18,7.32-1.78,3.5,3.92,4.73,8-1.57,10.65a2.37,2.37,0,0,0-1,.62c-.51.75-.9,1.58-1.33,2.37,3-2.06,6-4,8.79-6.28.47-.39,0-2.21-.34-3.27-3.14-9.61-8.7-7-14.44-2.71-.64.47-1.3,1.87-1.05,2.42,1.17,2.58,2.62,5,5.52,10.34h.27C731.28,246.75,731,245.91,730.87,245.07Z"/><path class="cls-1" d="M349,132c-5.09,4.87-10.1,10-15.64,14.39-.44.35-5.12-3.39-6.73-5.93-3.82-6,3.67-6.45,5.62-9.63s5.31-5.11,8.07-7.61c-2.48,2.82-4.77,5.84-7.5,8.4-3.76,3.52-8.74,6.27-1.77,11.66,2.08,1.6,2.64,1.82,4.34,0,3.7-3.93,7.62-7.67,11.5-11.44a7.26,7.26,0,0,1,1.8-1Z"/><path class="cls-1" d="M903.5,303c-1.87,4.16-5.06,1.13-7.6,1.26-2.1.11-2.52-1.75-1.79-3.27,1.4-2.94-2.73-7.28,1.88-9,2.39-.89,5.4-.13,8.13-.11L903.47,303c-2.57-2.77,2.56-8-2.85-9.52-1.6-.44-4.64-.64-5.23,3.3C894.25,304.46,899.94,302.07,903.5,303Z"/><path class="cls-1" d="M618.71,577c-2,3.77-4.13,7.2-7.54,7.05-4-.17-7.45-4-7.87-7.33-.25-1.93,4.84-6.52,7.19-6.3C613.43,570.65,616,574.63,618.71,577Zm-8.5-6.14c-2,2.37-4.89,4.62-4.51,5.71a9.56,9.56,0,0,0,5.27,5.37c1.09.37,5.09-3.44,4.8-4.16C614.79,575.32,612.48,573.44,610.2,570.81Z"/><path class="cls-1" d="M798.69,565.46a47.56,47.56,0,0,1-6.24-9.62c-1.32-1.55-2.64-3.11-3.94-4.68-2.49-3-4.37-6.54-7.57-11.44.48,2.37.43,3.08.74,3.54a222.33,222.33,0,0,0,19.64,25.36C800.41,567.58,799.53,566.52,798.69,565.46Z"/><path class="cls-1" d="M803.16,570.63c1.44,1.55,2.9,3.08,4.4,4.58a4.41,4.41,0,0,0,1.3.62c0-.07,0-.14-.07-.21A44.26,44.26,0,0,1,803.16,570.63Z"/><path class="cls-1" d="M1006.3,134.21c.93-2,1.16-2.53,1.45-3.06q8.64-15.31,17.31-30.6a10.6,10.6,0,0,1,1.51-1.69c.12.61.56,1.4.33,1.81q-9.18,15.85-18.5,31.62A18,18,0,0,1,1006.3,134.21Z"/><path class="cls-1" d="M547.25,512.41h1.88l.1-.11"/><path class="cls-1" d="M547.25,512.41c-.76,1.35-1.42,2.76-2.16,4.13,1.35-1.37,2.84-2.64,4-4.13Z"/><path class="cls-1" d="M853.24,266.81c-.14-.38-.52-.89-.39-1.12,7-12.49-1.82-13.22-10.47-14.19-.79-.09-1.47-1.05-2.21-1.61a13.44,13.44,0,0,1,2.49-.14,37.39,37.39,0,0,1,4.81.86c3.67.95,7.32,2,11,3l-5.26,13.18Z"/><path class="cls-1" d="M330.09,112.87c-4.13,3.88-7.67,7.17-11.15,10.52-1.37,1.32-3.09,2.57-1.43,4.89.94,1.31,1.67,2.77,2.5,4.16-1.56-1.29-3.12-2.58-4.66-3.88s-1.74-2.63,0-4.24c3.79-3.54,7.38-7.31,11.1-10.93a5.62,5.62,0,0,1,2.09-1.11C328.8,112.17,329.25,112.53,330.09,112.87Z"/><path class="cls-1" d="M166.32,129c6.81,6.38,13.44,12.41,19.84,18.67,2.06,2,3.54,4.64,5.28,7-2.14-2-4.35-3.95-6.39-6.05q-8.6-8.87-17.07-17.88a9.28,9.28,0,0,1-1.21-2S167.16,128.46,166.32,129Z"/><path class="cls-1" d="M864.83,420.08c.27,4.15,1,8.34.71,12.45-.43,5.54-.18,9.59,7.1,7.57.39-.11.95.36,1.43.55-.59.49-1.21,1.43-1.77,1.39-2.82-.19-8-.57-8.05-1-.19-7,.29-14,.61-20.94Z"/><path class="cls-1" d="M956.94,157.55c-4.62,10.34-9.47,21.21-14.35,32.06-.1.23-.6.27-.91.4a6.4,6.4,0,0,1,.25-1.44q6.74-15.86,13.53-31.7c.16-.38.66-.61,1-.91Z"/><path class="cls-1" d="M220.42,54.48c-.13,3.72-2.47,5.43-5.77,5.27-2.91-.13-5-2-4.83-5.22.2-4.2,3.81-4.55,6.67-4.78S220.52,51.7,220.42,54.48Zm-5.18-2.89c-1.71.42-4,.15-3.93,2.82,0,2.2,1.18,3.76,3.51,3.72s4-1.27,4-3.69S217,51.83,215.24,51.58Z"/><path class="cls-1" d="M741.88,44.18c-2.77,9-9.13,15.3-14.8,22.07-.18.22-.67.17-1,.25a4.91,4.91,0,0,1,.39-1.66Q733.58,54.4,740.78,44a4.71,4.71,0,0,1,.84-.75Z"/><path class="cls-1" d="M1024.89,552c6.66,8.66,9.74,19.11,14.34,28.79.1.21-.06.55-.09.83-.31-.19-.77-.31-.9-.58q-6.69-14.52-13.31-29.07Z"/><path class="cls-1" d="M167.61,95.73q-13,13.83-25.95,27.65c-.21.23-.66.24-1,.35.06-.27,0-.64.2-.81q13.32-13.65,26.67-27.26Z"/><path class="cls-1" d="M266.25,250.41h-1.53"/><path class="cls-1" d="M267.05,249.13l-1.86-.11-.47,1.4h1.53C266.5,250,266.76,249.56,267.05,249.13Z"/><path class="cls-1" d="M785.72,238.58c5.67,7.15,5.47,16.32,8.43,24.41,0,.11-.36.38-.55.58l-1.12-1.73,0,.05-6.75-23.36Z"/><path class="cls-1" d="M169.51,127.68a5.26,5.26,0,0,1-1.07-.53,3.36,3.36,0,0,1,.5-1.65q7-7.27,14.08-14.43a3.37,3.37,0,0,1,1.34-.62c.06,0,.42.55.38.61Q177.14,119.4,169.51,127.68Z"/><path class="cls-1" d="M761.3,451v-2.47"/><path class="cls-1" d="M763.54,440.55a5.22,5.22,0,0,0-1,.21c.25,1,.84,2.07.69,3a11.94,11.94,0,0,1-1.94,4.79V451a15.2,15.2,0,0,0,3.29-7.51C764.28,442.6,763.95,441.56,763.54,440.55Z"/><path class="cls-1" d="M242.33,66.54l17.9,18.78c-.52,0-1.26.21-1.54-.06Q249.79,76.9,241,68.41a1.3,1.3,0,0,1-.16-1.06C240.89,67.17,241.32,67.08,242.33,66.54Z"/><path class="cls-1" d="M322.23,134.12c-.25-.14-.72-.34-.7-.42a2.5,2.5,0,0,1,.52-1.26q7.11-6.69,14.29-13.3c.26-.24.82-.14,1.24-.2Z"/><path class="cls-1" d="M616.11,512.41,607.63,520c.25.21.63.66.73.61a40.59,40.59,0,0,0,10.41-8.17Z"/><path class="cls-1" d="M616.11,512.41h2.66"/><path class="cls-1" d="M1040.95,547.29l-.89-.42c.21-.4.33-.93.66-1.18a37.89,37.89,0,0,1,3.27-2.23c3.51-2.16,7-4.28,10.57-6.41.07.34.31.92.2,1C1050.16,541.15,1045.55,544.22,1040.95,547.29Z"/><path class="cls-1" d="M876.56,444.92l10.08.89c-5.53.22-11.07.48-16.6.61a25.44,25.44,0,0,1-4.06-.53Z"/><path class="cls-1" d="M896.86,106.09a31.09,31.09,0,0,1,.91-4c2.47-4.3,4.94-8.6,7.49-12.85A31.13,31.13,0,0,1,907.77,86,37,37,0,0,1,906,90.26C903.5,94.75,900.87,99.18,896.86,106.09Z"/><path class="cls-1" d="M873.78,424.63l1-2.44a15.2,15.2,0,0,1,1,3.64c.12,4.37,0,8.75,0,13.12Z"/><path class="cls-1" d="M348.06,604.73l.28,0a8.1,8.1,0,0,1,1.18-1.27c2.5-2.2,4-5.56,5.9-8.39l-.36-.34c-.26,4.36-8,6.28-8.81,10.48A11.3,11.3,0,0,1,348.06,604.73Z"/><path class="cls-1" d="M888.76,84c-2.08,3.67-4.15,7.35-6.26,11-.15.26-.59.35-.89.52-.08-.78-.52-1.77-.2-2.3,2.16-3.53,4.49-7,6.76-10.42Z"/><path class="cls-1" d="M1021.67,27.62c-2.21,7.73-6.26,14.48-11,20.86h0l11-20.85Z"/><path class="cls-1" d="M500.56,561.78c5.4,1.57,7.45,6.61,10.7,10.41.14.17-.07.65-.12,1-.37-.13-.88-.14-1.1-.4-3.17-3.66-6.3-7.35-9.44-11Z"/><path class="cls-1" d="M940.28,166.22A7.29,7.29,0,0,1,940,168c-2.31,5.31-4.67,10.59-7,15.89l-.69-.32,8-17.38Z"/><path class="cls-1" d="M184,94.3l12.92-13.47.27.27L184.3,94.63Z"/><path class="cls-1" d="M1010.25,32q-4.91,8.21-9.82,16.41c-.14.23-.45.35-.68.52,0-.45-.17-1,0-1.33,3.42-5.25,6.9-10.47,10.36-15.69Z"/><path class="cls-1" d="M849.49,460.56a14.91,14.91,0,0,1,.71,3.53c-.13,3.16-.48,6.3-.75,9.46-.32-.16-.93-.35-.92-.49.29-4.16.65-8.31,1-12.47Z"/><path class="cls-1" d="M1010.14,31.87q4.13-7.41,8.28-14.82c0-.07.33,0,.5,0L1010.25,32Z"/><path class="cls-1" d="M174.93,250.21q5.55-5.64,11.12-11.27c.23-.23.69-.23,1-.34-.18.41-.26.93-.56,1.2-3.84,3.5-7.71,7-11.57,10.43Z"/><path class="cls-1" d="M864.86,420.11c1.65-3.77,4.86-2,7.11-1.45,3.13.75,2.14,1.78-.42,1.76-2.24,0-4.47-.21-6.71-.33Z"/><path class="cls-1" d="M405.3,101.46c-2.83,1.75-5.22,3.23-7.64,4.67-.07,0-.45-.43-.68-.66,2.27-1.66,4.53-3.33,6.83-4.93C403.94,100.45,404.45,100.91,405.3,101.46Z"/><path class="cls-1" d="M1010.19,48.47c-2.07,4-4.14,8.09-6.24,12.12-.11.21-.46.29-.7.43,0-.47-.12-1,.1-1.4,2.24-3.74,4.55-7.45,6.83-11.16Z"/><path class="cls-1" d="M331.13,110.25c.84-.39,1.28-.69,1.36-.61,2.28,2.26,4.53,4.55,6.78,6.84a8.29,8.29,0,0,1-.78.68C336.12,115,333.79,112.77,331.13,110.25Z"/><path class="cls-1" d="M344.17,120.84l5.37,6.16c-.26.22-.72.64-.74.63q-2.7-2.8-5.31-5.68C343.44,121.89,343.78,121.46,344.17,120.84Z"/><path class="cls-1" d="M175,250.24a10.46,10.46,0,0,1-1.09,1.43c-3,2.81-6,5.59-9.06,8.38-.06-.17-.21-.46-.15-.51q5.12-4.68,10.27-9.33Z"/><path class="cls-1" d="M683.31,662.3l-3.45,5.53-.84-.65,4.33-4.85Z"/><path class="cls-1" d="M938.95,361.09l3.16,1a5.26,5.26,0,0,1-1.66.28c-1.61-.26-3.2-.65-4.79-1Z"/><path class="cls-1" d="M792.52,491.87l.25-6.27.74.07-1,6.18Z"/><path class="cls-1" d="M130.7,134.7c-.08-.53-.2-.8-.13-.87,1.55-1.59,3.13-3.17,4.7-4.74.1.17.33.45.29.49C134,131.2,132.51,132.81,130.7,134.7Z"/><path class="cls-1" d="M888.76,84l-.58-1.19L890,79.5c.17.2.53.48.48.6C890,81.42,889.35,82.72,888.76,84Z"/><path class="cls-1" d="M1021.67,27.62l2-5.6.55.23-2.54,5.36Z"/><path class="cls-1" d="M948.25,361.83l-3.37.84-.08-1,3.42.18Z"/><path class="cls-1" d="M859.54,60.47c-1.1.26-1.46.47-1.68.37-1.11-.48-2.18-1-3.27-1.57.27-.15.61-.49.8-.42C856.53,59.22,857.64,59.7,859.54,60.47Z"/><path class="cls-1" d="M134.79,145.94c-1.31,1.25-2.4,2.3-3.52,3.33a3.45,3.45,0,0,1-.45-.36c1.06-1.09,2.11-2.19,3.18-3.26C134.06,145.6,134.36,145.78,134.79,145.94Z"/><path class="cls-1" d="M948.22,361.87l2.29.25-.32.72-1.95-1Z"/><path class="cls-1" d="M893.12,77l-1.25,1.87c-.11-.32-.34-.67-.29-1a1.5,1.5,0,0,1,.56-1C892.38,76.79,892.84,77,893.12,77Z"/><path class="cls-1" d="M940.27,166.21l1-3,.53.28-1.55,2.78Z"/><path class="cls-1" d="M814.6,181.82c-9.72-6-6.08,4-8.37,7.06a12,12,0,0,0-1.11,2.5,19.89,19.89,0,0,0-.18-3c-.67-3.25,5.05-7.51-1.27-9.7-2-.68-5.9-3.65-6.39.7-.43,3.81-8.5,9.22,2,12.23,8.3,2.38,15.69,6,17.35-6.91.05-.41.89-.73,1.36-1.09a88.15,88.15,0,0,1-3.22,9.68c-.78,1.71-.82,4.88-4.65,3.51-9.51-3.39-19-7.27-28.78-9.38-10.08-2.16-11-6.34-7.11-15,2.81-6.26,6.68-3,9.69-2.21,10.44,2.69,20.69,6.08,31,9.27a8.26,8.26,0,0,1,2,1.41Zm-37.54-12.18c-1.44,4.18-3.84,7.91-3.67,11.53.19,4.11,5.57,2.79,8.25,4.64,1.39-4,3.84-7.89,3.87-11.85S780.51,172.12,777.05,169.64Zm14.79,20c1.53-4.29,3.79-8,3.92-11.8.11-3.44-5.38-4.64-6.84-4.06-4.74,1.89-4.13,7.33-4.45,11.41C784.2,188.75,788.57,187.21,791.84,189.6Z"/><path class="cls-1" d="M834.31,201.76c-.46-11.6,4-14.64,14.29-10.17,6.4,2.79,13.33,4.36,20,6.58.8.27,1.9,1.09,2,1.77,1.34,9.84-5.17,15.44-14.34,12.43-7-2.29-13.87-4.71-20.84-6.94C832.6,204.54,834.6,202.53,834.31,201.76Zm12.49,2.81c-.5,4.17,3.2,3.55,5.49,4.5.35.14,1.7-1.1,1.95-1.91,2.8-9.15-1.1-13.87-10.18-15-2.1-.26-5.88-.93-6.06-.43-1.2,3.46-2.58,7.36-1.93,10.75.32,1.66,4.82,2.56,7.5,3.64.26.1,1.25-.9,1.46-1.54.94-2.91,1.72-5.87,2.55-8.81Zm16.45,8.25c5.09-2.78,4.6-8,4.54-11.37-.06-3.63-5.74-3.93-8.37-3.52-6.62,1-2.11,7.57-4.28,11.09Z"/><path class="cls-1" d="M891,205.38c7.93,2,16.45,2.43,23.09,6.22,5,2.84-1.45,8.83-1.5,13.62,0,2.5-2,1.89-3.67,1.41-8-2.32-16.05-4.65-24.11-6.87-2.35-.65-2.46-2.35-2-4.05.95-3.48,2.18-6.89,3.29-10.32-.55,3-1.92,6.16-1.49,9,1.16,7.75,9,4.91,13.48,7.63,1,.61,3.73,2.2,4-.88.39-4.17,5.49-10.29-2.91-11.66-5.89-1-1.62,5.3-3.84,7.38a11.26,11.26,0,0,0-1.6,2.66,14.9,14.9,0,0,1-.12-3c.68-4.13,4.17-9.32-4-9.91-.19,0-.34-.51-.52-.79Zm17.27,5.85c-4.82,1.71-3.89,6.51-4.48,9.91-.71,4.06,4.11,3.93,5.61,3.46,4.79-1.51,3.33-6.75,4.23-10.3C914.47,211.12,910.41,212.6,908.31,211.23Z"/><path class="cls-1" d="M538.79,246.3c-1.82-4.64-2.51-1.32-3.86-.36a21.84,21.84,0,0,1,4.28,4.47h1.31C539.92,249,539.33,247.68,538.79,246.3Z"/><polygon class="cls-1" points="534.93 245.94 534.93 245.94 534.92 245.93 534.93 245.94"/><path class="cls-1" d="M530.62,249s0,0,0,.05l0,0Z"/><path class="cls-1" d="M530.6,249l-2.05,1.37h2.1A2.9,2.9,0,0,1,530.6,249Z"/><path class="cls-1" d="M609.15,250.41h-1.28m-67.35,0h-1.31m66.36.07.23-.07h-3.48"/><path class="cls-1" d="M607.87,250.41h1.28L609,250c-.83-1.91-2.26-1.52-3.85-.81l-2.79,1.24h3.48A2.58,2.58,0,0,1,607.87,250.41Z"/><path class="cls-1" d="M552.23,248.66c.27.58.52,1.17.78,1.75h.68C553.21,249.82,552.68,249.26,552.23,248.66Z"/><path class="cls-1" d="M598.67,236.1l-1,.49,1-.46Z"/><path class="cls-1" d="M597.66,236.59q-15.63,6.89-31.24,13.82h2.81C578.82,246.06,588.2,241.22,597.66,236.59Z"/><path class="cls-1" d="M566.83,233c-2.44-2.78-5.45-4.9-8.34-1.28s1.76,6.43,2.2,9.82a45.6,45.6,0,0,0,1.17,4.91c-.78-1.47-2.26-3-2.22-4.4.11-4.14-8.66-8.19.58-12.73,5.8-2.85,5.19,1.12,6.56,3.7Z"/><path class="cls-1" d="M601.79,232.83c-1.83-4-3.88-7.93-5.9-11.86v1.77a4.35,4.35,0,0,1-.27,1.51c2.46,3.55,6.69,6.6,3.12,11.82C600.43,235.63,603.23,236,601.79,232.83Z"/><path class="cls-1" d="M582.74,221.43c.54,1,1.16,1.9,1.61,2.91,2,4.4,4,8.82,5.94,13.23-.26,0-.71,0-.76-.07-2.27-5.36-4.51-10.73-6.76-16.1Z"/><path class="cls-1" d="M574.76,225.72a4.81,4.81,0,0,1,.76.94c1.92,4.21,3.81,8.44,5.7,12.66-.24.09-.68.26-.68.25q-2.9-6.93-5.75-13.88Z"/><path class="cls-1" d="M566.79,233.06c1.95,3.63,3.9,7.26,5.81,10.91,0,.06-.35.33-.55.5L566.83,233Z"/><path class="cls-1" d="M543,241a6.19,6.19,0,0,1-.34-1q4.24-2.62,8.53-5.17c.09-.05.37.21.56.33Z"/><path class="cls-1" d="M530.64,249l4.29-3.08h0l-4.3,3.06Z"/><path class="cls-1" d="M574.8,225.7l-1.92-2.16.61-.42,1.27,2.61Z"/><path class="cls-1" d="M582.77,221.39c-.53-.62-1.05-1.24-1.56-1.87l.38-.33,1.15,2.23Z"/><path class="cls-1" d="M399.73,250.41H404C402.92,248.94,402.1,248.45,399.73,250.41Z"/><path class="cls-1" d="M404,250.41h-4.29l-.43.36"/><path class="cls-1" d="M421,239.86c.62,1.07,1.58,2.08,1.79,3.23.49,2.55,3.58,4.23,6,6.12a26.56,26.56,0,0,1-4.85-7.08C423.37,241.14,422,240.61,421,239.86Z"/><path class="cls-1" d="M429.84,250.18l.23.23h.1Z"/><path class="cls-1" d="M448.89,244.08c1.43-1.23,2.86-2.25,4.39-.27,1.24,1.61,2.53,3,.19,5.14l-1.57,1.46h2.86c2.14-4.34.08-8.75-4.89-13.55-4.35-4.21-7.65-9.51-11.39-14.35-4-5.19-8-9-13.16-5.89a49.41,49.41,0,0,1-3.86,3.35l-.24.27a65.27,65.27,0,0,1-13.06,11c-1.27,1.31-2.51,2.64-3.75,4-.54,1.81.52,3.68,2.69,6.19,7.65,8.85,10.36-1.44,13.57-3.95,17.73-13.84,17.51-14.15,28.41,1.24.52.73.74,2.49.28,3-3.29,3.31-6.6,6.84-9.95,8.78h1.9C443.82,248.29,446.4,246.23,448.89,244.08ZM428,230.33c-5.12,4.57-10.88,8.41-16.74,12.84a80.84,80.84,0,0,1-5.58-6.44c-.2-.28,1.29-2.06,2.24-2.87,4.48-3.85,9-7.72,13.6-11.36,4-3.17,8.5-10.12,13-1.38C437,225.82,430.83,227.83,428,230.33Z"/><path class="cls-1" d="M430.17,250.41h-.1"/><path class="cls-1" d="M441.3,250.41h-1.9"/><path class="cls-1" d="M454.75,250.41h-2.86"/><path class="cls-1" d="M338.64,250.41h-1.58"/><path class="cls-1" d="M326,250.41h-2.12"/><path class="cls-1" d="M347.73,250.41h-2"/><path class="cls-1" d="M324.08,248.27c-3.42-3.75.59-5.22,2.13-7.06,1.85-2.23,2.78.35,3.84,1.52l7,7.69h1.58l-7.08-8.8c-1-1.19-2.75-2.14-.75-4,1.83-1.7,3.18-1.19,4.59.51,3.4,4.11,6.87,8.18,10.29,12.28h2l-.07-.09c-4.61-5.41-9.22-10.82-13.75-16.12-6.15,2.8-10.11,6.24-13,10.77-.44.69.65,2.79,1.53,3.81l1.43,1.64H326Z"/><path class="cls-1" d="M363.15,250.41h-2.34"/><path class="cls-1" d="M356.47,250.41h-1.83"/><path class="cls-1" d="M348,239.86c-2.89-3.68-5.9-7.31-8.4-11.25-1.47-2.31-6.58-4.34-1.81-8,3.89-3,7.57-4.93,11.38.8,4.9,7.37,10.54,14.25,15.8,21.39.45.61.83,1.92.5,2.32-1.41,1.75-2.92,3.43-4.65,5.33h2.34c1.66-1.78,2.71-3.83,4.31-5.32.31-.29,0-1.73-.5-2.34q-8.14-10.89-16.42-21.66c-1.71-2.23-2.62-5.52-6.53-5-4.24.52-7.88,2.23-9.44,6.27-1.29,3.34,2.1,5.16,3.8,7.36,5.46,7.07,11,14,16.27,20.71h1.83C353.44,246.67,350.67,243.29,348,239.86Z"/><path class="cls-1" d="M362.91,198.63h0a6.62,6.62,0,0,1,.67,2.92,4.33,4.33,0,0,0,.31.34l.09.09c.12-.36.26-.71.4-1.06Z"/><path class="cls-1" d="M487.49,190.6l.42.45c.51-.25,1-.5,1.49-.77-.45-.53-.92-1.06-1.46-1.6-1.75-1.78-2.73-4.3-4.27-6.32-.28-.37-.59-.73-.89-1.08l-.85.86.18.3C483.85,185.2,485.25,188.32,487.49,190.6Z"/></g></g><g id="trasa"><path class="cls-2" d="M880.1,717.42c3.21-5.39,7.3-9.23,13-17.23"/><path class="cls-3" d="M527,167.35c17.35-12.82,32.35-27.82,38.35-48.82,3-12,0-23-6-34-12-19-32-30-52-39-17-7-35-10-53-8-17,2-33,6-50,10-41,12-70.33,10.95-114,12.71C253.51,61.73,200.69,72,158.3,78"/><path class="cls-3" d="M141.52,420.55c-18.2,4-37.2,8-56.2,5-31-6-59-19-77-47-15-25-7-55,12-74,1-1,1-3,2-4,37-39,84-64,133.4-80.5"/><path class="cls-3" d="M669,555.6a132,132,0,0,1-38.53,65.89c-20.27,18.92-46.11,31.13-72.92,37.57-27.4,6.59-56.55,7.86-84.07,1.26s-52.87-20.32-75-37.87c-21.9-17.37-41.31-38.25-55.94-62.12q-2.74-4.47-5.25-9.08"/><path class="cls-3" d="M902.07,687.23c18.86-21.4,37.05-69.72,31.19-100.41-5.3-27.76-35-62.27-34.69-90.55.32-25.24-22.95-48.29-31.25-72.35-7.61-22-21.68-40.36-43.06-50.38-20.21-9.47-43.66-11.36-65.54-8q-4.23.66-8.41,1.6"/><path class="cls-2" d="M178.34,75.06c-6.19.91-21.91,3.47-35.79,8.86"/></g><g id="marker_2" data-name="marker 2"><path class="cls-4" d="M139,61.34c0,12-12.44,30.54-12.44,30.54s-12.44-18.52-12.44-30.54,5.57-17.1,12.44-17.1S139,49.32,139,61.34Z"/><path class="cls-5" d="M146.91,90l-.66.51c11.3,1,18.13,2.93,18.13,4.73,0,2.68-15.2,5.56-37.83,5.56s-37.83-2.88-37.83-5.56c0-1.76,6.53-3.6,17.4-4.66l-.67-.5c-10,1-17.33,2.8-17.33,5.16,0,3.86,19.54,6.16,38.43,6.16S165,99.08,165,95.22C165,92.81,157.3,91,146.91,90Z"/><path class="cls-6" d="M126.55,52.27A8.43,8.43,0,1,0,135,60.7,8.43,8.43,0,0,0,126.55,52.27Zm0,14.7a6.27,6.27,0,1,1,6.27-6.27A6.27,6.27,0,0,1,126.55,67Z"/></g><g id="marker_1" data-name="marker 1"><path class="cls-4" d="M912.56,668.4c0,12-12.44,30.54-12.44,30.54s-12.44-18.52-12.44-30.54,5.57-17.1,12.44-17.1S912.56,656.38,912.56,668.4Z"/><path class="cls-5" d="M920.48,697l-.66.51c11.3,1,18.13,2.93,18.13,4.73,0,2.68-15.2,5.56-37.83,5.56s-37.83-2.88-37.83-5.56c0-1.76,6.53-3.6,17.4-4.66l-.67-.5c-10,1-17.33,2.8-17.33,5.16,0,3.86,19.54,6.16,38.43,6.16s38.43-2.3,38.43-6.16C938.55,699.87,930.87,698.06,920.48,697Z"/><path class="cls-6" d="M900.12,659.33a8.43,8.43,0,1,0,8.43,8.43A8.43,8.43,0,0,0,900.12,659.33Zm0,14.7a6.27,6.27,0,1,1,6.27-6.27A6.27,6.27,0,0,1,900.12,674Z"/></g><g id="samolot"><path id="plane_shadow" data-name="plane shadow" class="cls-5" d="M798.92,198.93s-25.14-25.14-34.91-39.1c0,0-27.76-37.47-27.93-52.92q0-.07,0-.15s-1.4-1.4,1.4-2.79c0,0,1.4-1.4,5.59-1.4,0,0,9.18-2.57,50.79,22.28,0,0,29.3,13.55,64.32,50s52.55,36.62,52.55,36.62,11.8,2.85,70-3,61.2,3.67,61.2,3.67,2.81,5.52-7.2,6.1c0,0-29.78,5.84-50.33,15.31,0,0-34.86,10.35-39.68,31.41l22.93,23.26s1.21,2.66,12.44,5.56c0,0,5.9,0,8.91,9.19,0,0,2.48,1.5-1.44,6.63s3.31,12.5,3.31,12.5,27.13,35,36.26,56.48S1046.83,425,1045.16,454s-13.52,69.25-20.15,84.61c-11,25.44-17.83,62.65-50,98.91-15.92,17.94-70,65.59-70,65.59s71.63-73.92,84.17-101.33c8.58-18.75,17.67-35.18,26.83-63.58,10.95-33.92,13.14-72.2,8.52-95.56-8.48-42.92-63.83-100.36-63.83-100.36s-54.73-40.55-62.9-42.23-11.89,3.2-11.89,3.2-18.09,24.5-18.65,66.77-11.9,45.57-13.13,41.74c0,0-8-8.7-12.22-26.65,0,0-10.92-32.12-4.5-70.26s6.19-63.06-7.75-87L805.38,205Z"/><g id="plane"><path d="M1016.36,570.42c8.86-15.37,16.66-30.6,21.45-44.21-6,14.23-13.8,29.62-21.74,44.22Z"/><path d="M1050.52,425.74c-9.08-40.15-28.65-71.35-52.54-103.25-4-5.4-9.27-10.41-4.76-17.45,3-4.62-.38-6.42-2.12-9.46-4.6-8-14.8-6.11-20.63-12.39-11.28-12.15-23.32-23.6-35.08-35.3a11.65,11.65,0,0,0-2.51-1.48,11.48,11.48,0,0,0,1.46,2.55q16.19,16.53,32.45,33c.54.55,1,1.19,1.47,1.79a22.07,22.07,0,0,1-2.61-.52c-9.57-3.11-19.13-6.25-28.35-9.27-1.17.29-2.12.26-2.35.66a2.14,2.14,0,0,0,.2,1.94,29.15,29.15,0,0,0,3.93,4.45c2.22,1.92,4.67,3.57,7,5.34-1.81-2.17-3.62-4.33-5.42-6.52-.65-.79-1.24-1.62-1.86-2.43.32-.05.68-.23,1-.14,15.52,5.47,31.71,9.62,46.34,16.89,11.88,5.9,2.3,16.09.92,24.43a30.44,30.44,0,0,0-.13,4.23c.64-1.12,1.3-2.23,1.92-3.36s1.14-2.2,1.71-3.3a33.28,33.28,0,0,1,2.57,2.67c4.44,5.74,9.17,11.29,13.2,17.31,18.38,27.47,33.19,53.83,41.24,86.8,7.77,31.78.93,62.88-6.75,93.55-.78,3.13-1.79,6.38-3,9.72,4.4-10.51,7.78-20.38,9.4-28.8C1051.76,473.71,1056,449.76,1050.52,425.74Z"/><path d="M863.65,369.89C864.34,337,871,309,893.39,286.76c1.38-1.37,3.31-4.33,5-2.4s-1.94,2.73-3.14,4c-18.52,19.11-26.79,42.51-28.49,68.51-1.14,17.5-.93,35.11-6.71,52-.64,1.88-1.1,3.58-3.34,4A5.29,5.29,0,0,1,851,410.3c-10.92-16.57-15.54-35.24-17.5-54.62-2.92-29,4.13-57.36,5.75-86.07.93-16.5-2.25-32.36-11.64-46.5a12.37,12.37,0,0,1-1-3.41,14.22,14.22,0,0,1,2.58,2.35c15.43,23.28,13.5,48.75,9.83,74.65-3.25,22.95-6.92,46.3-1.48,69.1,3.24,13.58,5.19,28,13.2,40.23,1.22,1.86,2.41,5,5,4,1.67-.64,3.13-3.52,3.51-5.6C861.41,392.16,864.52,379.94,863.65,369.89Z"/><path d="M1016,428.35c11.17,26.17,9.36,53.57,3.14,80.66-4.09,17.79-15.19,46.21-26.5,71.94q.79,0,1.56.12c17.21-34.19,30.34-69.48,31.51-98.13,0-45-10.93-71.86-34.74-103.86-25.34-34.07-58.58-59-92.09-83.79a8.1,8.1,0,0,0-2.17-.79,8.52,8.52,0,0,0,1.38,2C924.56,318,952,337.94,974.89,363.85A237.35,237.35,0,0,1,1016,428.35Z"/><path d="M738.1,89.38c15.43,3.12,30.3,12.27,45.71,20.43,39.74,21,71.5,51.24,99.89,85.46,8.71,10.5,17.58,20.87,26.31,31.36a16.32,16.32,0,0,1,1.71,3.45c-1.2-.69-2.7-1.12-3.54-2.11-20.53-24.34-39.74-49.87-63.13-71.66C815.4,128.7,781.35,108,743.86,92.79c-4.12-1.67-9.85-3.39-12.58.06-3.86,4.88,1.19,10.09,3,14.84C747.21,140.62,772.76,164,796,189.11c2.07,2.24,3.43,5.14,5.12,7.73a67.08,67.08,0,0,1-5.8-5c-24-25.58-49.51-50-62.83-83.63-1.21-3-2.28-6.15-3.52-9.18C726.11,92,728.87,89.11,738.1,89.38Z"/><path d="M1019.32,201.34c-35.6-.62-68.2,6.24-101.18,4.76-5.07-.23-10.08-1.73-15.11-2.67a4,4,0,0,1-.89-.41,4.13,4.13,0,0,1,1.29-.27c41.55,5,82.59-5.18,124-4.06,5.57.15,11.12,1.4,16.66,2.31,2.59.43,5.46,1.25,5.35,4.53s-3.06,4.44-5.69,4.86a215.61,215.61,0,0,0-53.43,15.81c-16.06,7.11-33.8,12.45-42.11,30.5-.11.23-.67.25-1,.37a10.24,10.24,0,0,1,.35-2.65c5.65-13.63,17.81-19.64,30.08-25.38a262.9,262.9,0,0,1,66.08-21c1.24-.22,2.27-1.65,3.4-2.51a20.88,20.88,0,0,0-3.62-2.19C1034.75,200.19,1025.64,201.58,1019.32,201.34Z"/><path d="M861.1,197.08l-.44.73a27,27,0,0,1-2.41-1.89c-16.15-15.76-31.09-32.78-49-46.68-.83-.64-1.66-1.29-2.51-1.92l-10.55-7.73c4.07,2.31,8.4,4.26,12.18,7,19.48,14.08,34.85,32.52,51.8,49.3A13.82,13.82,0,0,1,861.1,197.08Z"/><path d="M958.36,296.86c2.87,2.41,6,4.72,8.73,7.37,5.65,5.42,11.16,11,16.65,16.58.51.52.53,1.52.77,2.3-.82-.18-2-.08-2.4-.59-6.94-8.91-15.51-16.12-24.06-23.36a5.62,5.62,0,0,1-.94-1.73Z"/><path d="M933.15,271.67c-.06.09-.37.72-.49.68a3.39,3.39,0,0,1-1.45-.76q-10.57-10.19-21.09-20.44a6.47,6.47,0,0,1-.84-1.36,5.75,5.75,0,0,1,.63-.07C911.85,249.73,932.86,269.27,933.15,271.67Z"/></g></g><g id="napis"><text class="cls-7" transform="translate(206.95 206.96)">flightcontrol</text></g><g id="box"><polygon class="cls-5" points="210.11 257.39 278.43 257.15 346.75 257.06 483.39 256.9 620.02 257.06 688.34 257.15 756.66 257.39 688.34 257.64 620.02 257.73 483.39 257.89 346.75 257.73 278.43 257.64 210.11 257.39"/><polygon class="cls-5" points="210.11 506.45 278.43 506.21 346.75 506.12 483.39 505.95 620.02 506.12 688.34 506.21 756.66 506.45 688.34 506.7 620.02 506.78 483.39 506.95 346.75 506.78 278.43 506.69 210.11 506.45"/></g></g></svg>