<svg xmlns="http://www.w3.org/2000/svg" viewBox="0 0 161.84 160.89"><defs><style>.cls-1{fill:#b8daff;}.cls-2{opacity:0.36;}.cls-3{fill:#1c1f26;}.cls-4{fill:#24262d;}.cls-5{fill:#324152;}.cls-6{fill:#47535e;}.cls-7{fill:#21304f;}</style></defs><title>top_logo</title><g id="Layer_2" data-name="Layer 2"><g id="main-logo"><circle class="cls-1" cx="80.04" cy="80.45" r="50.68"/><path class="cls-1" d="M83.63,0H83a.74.74,0,0,0-.76.76V5.5l-2.7-4c-.21-.33-.47-.78-.62-1.06A.77.77,0,0,0,78.26,0H77.5a.74.74,0,0,0-.76.76V8.82a.74.74,0,0,0,.76.76h.59a.74.74,0,0,0,.76-.76V4.07L81.54,8a11.45,11.45,0,0,1,.62,1.08.77.77,0,0,0,.72.49h.75a.74.74,0,0,0,.76-.76V.76A.74.74,0,0,0,83.63,0Z"/><path class="cls-1" d="M161.09,83.86h-4V82h3.1a.74.74,0,0,0,.76-.76v-.51a.74.74,0,0,0-.76-.76h-3.1V78.32h3.75a.73.73,0,0,0,.74-.55l.15-.49a.73.73,0,0,0-.09-.67.75.75,0,0,0-.62-.31h-5.26a.74.74,0,0,0-.76.76v8.07a.74.74,0,0,0,.76.76h5.31a.74.74,0,0,0,.76-.76v-.51A.74.74,0,0,0,161.09,83.86Z"/><path class="cls-1" d="M11.1,76.3h-.59a.72.72,0,0,0-.74.56L8.39,81.47,6.9,76.9a.75.75,0,0,0-.75-.6H5.7a.72.72,0,0,0-.74.53l-1.5,4.62L2.1,76.94a.75.75,0,0,0-.76-.64H.75a.74.74,0,0,0-.61.3.73.73,0,0,0-.11.65l1.85,6.22c.16.58.32,1.25.43,1.78a.77.77,0,0,0,.76.62h.71a.81.81,0,0,0,.75-.62A16,16,0,0,1,5,83.6l1-3,1,3c.15.46.3,1.07.45,1.78a.77.77,0,0,0,.72.5h.71a.75.75,0,0,0,.74-.61c.09-.46.24-1.06.44-1.78l1.84-6.22a.73.73,0,0,0-.1-.67A.75.75,0,0,0,11.1,76.3Z"/><path class="cls-1" d="M81.83,155.29l-1.67-.63c-.88-.32-.88-.65-.88-.85,0-.65.89-.7,1.16-.7a4.5,4.5,0,0,1,1.42.22l.53.16a.75.75,0,0,0,1-.45l.17-.5a.75.75,0,0,0-.49-1l-.61-.2a6.6,6.6,0,0,0-2-.33c-2,0-3.26,1.08-3.26,2.76,0,1.34.68,2.19,2.21,2.76l1.67.62c.89.34.89.66.89.78,0,.69-.9.87-1.44.87a5,5,0,0,1-1.78-.32l-.48-.18a.75.75,0,0,0-.59,0,.74.74,0,0,0-.39.44l-.18.48a.74.74,0,0,0,0,.58.76.76,0,0,0,.43.4l.48.18a6.78,6.78,0,0,0,2.49.45c2.12,0,3.55-1.17,3.55-2.91A2.87,2.87,0,0,0,81.83,155.29Z"/><g class="cls-2"><path class="cls-3" d="M49.58,97a1.1,1.1,0,0,0-1.51-.39,1.17,1.17,0,0,0-.43,1.55h0v0a1.12,1.12,0,0,0,1,.59,1.14,1.14,0,0,0,.54-.14,1.12,1.12,0,0,0,.54-.68,1.13,1.13,0,0,0-.09-.86Z"/><path class="cls-3" d="M47.58,92.62l0,0,0-.05a1.13,1.13,0,0,0-.59-.63,1.11,1.11,0,0,0-.86,0,1.13,1.13,0,0,0-.66,1.43h0v0l0,.09a1.13,1.13,0,1,0,2.11-.8Z"/><path class="cls-3" d="M46,88.74a1.12,1.12,0,0,0,.16-.85l0-.14a1.13,1.13,0,0,0-1.36-.83A1.13,1.13,0,0,0,44,88.29v.06a1.13,1.13,0,0,0,1.1.9l.23,0A1.13,1.13,0,0,0,46,88.74Z"/><path class="cls-3" d="M44.39,84.15A1.17,1.17,0,0,0,45.47,83a1.11,1.11,0,0,0-1.13-1.11A1.14,1.14,0,0,0,43.21,83s0,.14,0,.16a1.08,1.08,0,0,0,1.12,1Z"/><path class="cls-3" d="M51.34,60.14a1.21,1.21,0,0,0,.95-.46,1.13,1.13,0,0,0-1.78-1.39l-.08.11a1.11,1.11,0,0,0,.92,1.74Z"/><path class="cls-3" d="M47.54,92.51h0Z"/><path class="cls-3" d="M58.56,52.93a1.2,1.2,0,0,0,.73-.24,1.13,1.13,0,1,0-1.36-1.8l-.08.06a1,1,0,0,0-.42.74,1.16,1.16,0,0,0,.24.82A1.11,1.11,0,0,0,58.56,52.93Z"/><path class="cls-3" d="M52.26,101.17a1.13,1.13,0,0,0-1.8,1.37l.05.07a1.14,1.14,0,0,0,.91.46,1.13,1.13,0,0,0,.91-1.8Z"/><path class="cls-3" d="M59.2,108.15A1.13,1.13,0,0,0,57.89,110l.05,0a1.13,1.13,0,1,0,1.36-1.8Z"/><path class="cls-3" d="M53.9,104.92a1.13,1.13,0,0,0,0,1.6l.07.07a1.05,1.05,0,0,0,.75.31,1.15,1.15,0,0,0,.81-.35,1.17,1.17,0,0,0,0-1.63A1.13,1.13,0,0,0,53.9,104.92Z"/><path class="cls-3" d="M54,54.31h0l0,0-.06.06a1.13,1.13,0,0,0,.8,1.93,1.11,1.11,0,0,0,.79-.32l0,0,0,0A1.13,1.13,0,0,0,54,54.31Z"/><path class="cls-3" d="M114,72.09a1.12,1.12,0,0,0-.16.85l0,.14a1.13,1.13,0,0,0,2.19-.53v-.06a1.13,1.13,0,0,0-2.05-.39Z"/><path class="cls-3" d="M112.48,68.21l0,0,0,.05a1.13,1.13,0,0,0,2.12-.78h0v0l0-.09a1.13,1.13,0,1,0-2.11.8Z"/><path class="cls-3" d="M44.25,79h.08A1.18,1.18,0,0,0,45.47,78a1.13,1.13,0,0,0-1-1.22h-.09a1.13,1.13,0,0,0-1.13,1v.13A1.08,1.08,0,0,0,44.25,79Z"/><path class="cls-3" d="M115.65,76.68a1.17,1.17,0,0,0-1,1.23.26.26,0,0,0,0,0s0,.13,0,.14a1.12,1.12,0,0,0,1.12,1h.1a1.13,1.13,0,0,0,1-1.22v-.06a.26.26,0,0,0,0,0s0-.13,0-.14a1.07,1.07,0,0,0-1.09-1Z"/><path class="cls-3" d="M105.33,56.26a1.13,1.13,0,0,0,.8-1.93l-.07-.07a1.09,1.09,0,0,0-1.56,0,1.17,1.17,0,0,0,0,1.63A1.12,1.12,0,0,0,105.33,56.26Z"/><path class="cls-3" d="M62.8,50.2a1.12,1.12,0,0,0,.54-.14h0l.09,0a1.13,1.13,0,1,0-1.09-2l-.1.05h0a1.13,1.13,0,0,0,.56,2.11Z"/><path class="cls-3" d="M112.52,68.32h0Z"/><path class="cls-3" d="M87.4,46.57l.24,0a1.13,1.13,0,0,0,.24-2.23l-.1,0a1.08,1.08,0,0,0-1.29.88A1.17,1.17,0,0,0,87.4,46.57Z"/><path class="cls-3" d="M46.08,69.07a1.13,1.13,0,0,0,1.45-.66l0-.09a1.13,1.13,0,0,0-2.12-.79l0,.09A1.13,1.13,0,0,0,46.08,69.07Z"/><path class="cls-3" d="M44.82,74,45,74a1.18,1.18,0,0,0,1.13-.93,1.13,1.13,0,1,0-2.2-.52l0,.13A1.1,1.1,0,0,0,44.82,74Z"/><path class="cls-3" d="M77.48,45.88h.08a1.13,1.13,0,0,0,.65-2,1.09,1.09,0,0,0-.81-.26h-.1a1.05,1.05,0,0,0-.73.36,1.15,1.15,0,0,0-.27.85A1.17,1.17,0,0,0,77.48,45.88Z"/><path class="cls-3" d="M48.07,64.33a1.08,1.08,0,0,0,.51.13,1.19,1.19,0,0,0,1-.62,1.13,1.13,0,1,0-2-1.11l-.06.11A1.1,1.1,0,0,0,48.07,64.33Z"/><path class="cls-3" d="M107.78,59.67a1.13,1.13,0,0,0,1.8-1.37l-.05-.07a1.13,1.13,0,1,0-1.81,1.35Z"/><path class="cls-3" d="M100.77,108.23a1.13,1.13,0,1,0,1.31,1.84l.1-.08a1.09,1.09,0,0,0,.19-1.54A1.18,1.18,0,0,0,100.77,108.23Z"/><path class="cls-3" d="M105.34,104.67h0a1.21,1.21,0,0,0-.85.35,1.13,1.13,0,0,0,1.6,1.6l.07-.07a1.08,1.08,0,0,0,0-1.56A1.09,1.09,0,0,0,105.34,104.67Z"/><path class="cls-3" d="M107.74,101.28a1.13,1.13,0,0,0,.21,1.58,1.13,1.13,0,0,0,1.58-.21l.08-.1a1.08,1.08,0,0,0-.27-1.53A1.17,1.17,0,0,0,107.74,101.28Z"/><path class="cls-3" d="M100.82,52.71a1.12,1.12,0,0,0,.65.21,1.13,1.13,0,0,0,.66-2l-.05,0a1.13,1.13,0,1,0-1.36,1.8Z"/><path class="cls-3" d="M96.55,50l.1.06a1.13,1.13,0,0,0,1.06-2l-.08,0a1.13,1.13,0,0,0-1.09,2Z"/><path class="cls-3" d="M97.53,110.77a1.12,1.12,0,0,0-.86.1h0l-.09,0a1.13,1.13,0,0,0,1.09,2l.1-.05h0a1.13,1.13,0,0,0-.24-2.07Z"/><path class="cls-3" d="M115.82,81.92A1.18,1.18,0,0,0,114.61,83a1.13,1.13,0,0,0,1,1.22h.1a1.12,1.12,0,0,0,1.12-1v-.13A1.08,1.08,0,0,0,115.82,81.92Z"/><path class="cls-3" d="M115.24,87a1.17,1.17,0,0,0-1.34.91,1.13,1.13,0,1,0,2.2.52l0-.13A1.1,1.1,0,0,0,115.24,87Z"/><path class="cls-3" d="M110.46,63.82a1.13,1.13,0,0,0,2.07-.26,1.12,1.12,0,0,0-.11-.86l0-.07a1.13,1.13,0,0,0-2,1.07Z"/><path class="cls-3" d="M112,96.63a1.1,1.1,0,0,0-.84-.08,1.19,1.19,0,0,0-.7.57,1.13,1.13,0,1,0,2,1.11l.06-.11A1.1,1.1,0,0,0,112,96.63Z"/><path class="cls-3" d="M114,91.89a1.13,1.13,0,0,0-1.45.66l0,.09a1.13,1.13,0,1,0,2.12.79l0-.09A1.13,1.13,0,0,0,114,91.89Z"/><path class="cls-3" d="M92.1,112.95a1.13,1.13,0,0,0,.38,2.19,1.1,1.1,0,0,0,.38-.07l.06,0,.05,0a1.08,1.08,0,0,0,.62-1.43A1.17,1.17,0,0,0,92.1,112.95Z"/><path class="cls-3" d="M77.61,115h-.12a1.09,1.09,0,0,0-.81.27,1.14,1.14,0,0,0-.39.79,1.13,1.13,0,0,0,1.06,1.19h.17a1.13,1.13,0,0,0,.85-1.87A1.12,1.12,0,0,0,77.61,115Z"/><path class="cls-3" d="M72.71,114.33l-.11,0a1.11,1.11,0,0,0-1.3.88,1.16,1.16,0,0,0,.89,1.34h.05l.23,0a1.13,1.13,0,0,0,1.1-.9,1.13,1.13,0,0,0-.87-1.34Z"/><path class="cls-3" d="M72.42,46.6l.25,0a1.11,1.11,0,0,0,.84-1.34,1.14,1.14,0,0,0-1.36-.86l-.08,0a1.08,1.08,0,0,0-.8,1.34A1.16,1.16,0,0,0,72.42,46.6Z"/><path class="cls-3" d="M68,112.94l-.1,0a1.13,1.13,0,0,0-.79,2.12l.1,0a1.13,1.13,0,0,0,.79-2.12Z"/><path class="cls-3" d="M93,45.85l-.12,0a1.13,1.13,0,1,0-.79,2.12l.05,0,.05,0h0a1.12,1.12,0,0,0,.38.07A1.13,1.13,0,0,0,93,45.85Z"/><path class="cls-3" d="M67.44,48.07a1.14,1.14,0,0,0,.4-.07l.09,0a1.13,1.13,0,0,0-.79-2.12l-.09,0a1.13,1.13,0,0,0,.4,2.19Z"/><path class="cls-3" d="M63.47,110.89l-.1-.06a1.13,1.13,0,0,0-1.06,2l.08,0a1.13,1.13,0,0,0,1.09-2Z"/><path class="cls-3" d="M88.29,114.46a1.12,1.12,0,0,0-.84-.16l-.11,0a1.13,1.13,0,0,0-.86,1.35,1.14,1.14,0,0,0,1.1.89l.25,0,.09,0h0a1.13,1.13,0,0,0,.35-2.05Z"/><path class="cls-3" d="M82.4,45.86h.19a1.13,1.13,0,0,0,.06-2.26h-.08a1.07,1.07,0,0,0-.82.26,1.13,1.13,0,0,0,.65,2Z"/><path class="cls-3" d="M82.59,115h-.17a1.11,1.11,0,0,0-1,1.2,1.16,1.16,0,0,0,1.16,1.05h.14a1.12,1.12,0,0,0,1-1.2A1.14,1.14,0,0,0,82.59,115Z"/></g><polygon class="cls-3" points="80.04 68.05 44.25 44.66 80.04 80.45 80.04 68.05"/><polygon class="cls-4" points="44.25 44.66 44.25 44.66 44.25 44.66 67.65 80.45 80.04 80.45 44.25 44.66"/><polygon class="cls-4" points="44.25 116.24 44.25 116.24 80.04 92.84 80.04 92.84 80.04 80.45 44.25 116.24"/><polygon class="cls-3" points="80.04 80.45 67.65 80.45 67.65 80.45 44.25 116.24 80.04 80.45 80.04 80.45"/><polygon class="cls-4" points="80.04 80.45 80.04 80.45 80.04 80.45 80.04 80.45"/><polygon class="cls-4" points="80.04 80.45 80.04 80.45 80.04 80.45 80.04 80.45"/><polygon class="cls-3" points="80.04 80.45 115.83 116.24 115.83 116.24 92.44 80.45 80.04 80.45 80.04 80.45"/><polygon class="cls-4" points="80.04 80.45 80.04 92.84 115.83 116.24 80.04 80.45 80.04 80.45"/><polygon class="cls-4" points="80.04 80.45 115.83 44.66 115.83 44.66 115.83 44.66 80.04 68.05 80.04 68.05 80.04 80.45 80.04 80.45"/><polygon class="cls-3" points="80.04 80.45 92.44 80.45 115.83 44.66 80.04 80.45"/><polygon class="cls-5" points="92.61 68.76 80.92 12.94 80.92 80.45 92.61 68.76"/><polygon class="cls-6" points="80.92 12.94 80.92 12.94 80.92 12.94 69.23 68.76 80.92 80.45 80.92 12.94"/><polygon class="cls-6" points="13.42 80.45 13.42 80.45 69.23 92.14 69.23 92.14 80.92 80.45 13.42 80.45"/><polygon class="cls-5" points="80.92 80.45 69.23 68.76 69.23 68.76 13.42 80.45 80.92 80.45 80.92 80.45"/><polygon class="cls-7" points="80.92 80.45 80.92 80.45 80.92 80.45 80.92 80.45"/><polygon class="cls-7" points="80.92 80.45 80.92 80.45 80.92 80.45 80.92 80.45"/><polygon class="cls-6" points="80.92 80.45 80.92 147.95 80.92 147.95 92.61 92.14 80.92 80.45 80.92 80.45"/><polygon class="cls-5" points="80.92 80.45 69.23 92.14 80.92 147.95 80.92 80.45 80.92 80.45"/><polygon class="cls-6" points="80.92 80.45 148.43 80.45 148.43 80.45 148.43 80.45 92.61 68.76 92.61 68.76 80.92 80.45 80.92 80.45"/><polygon class="cls-5" points="80.92 80.45 92.61 92.14 148.43 80.45 80.92 80.45"/></g></g></svg>